<svg id="Layer_1" data-name="Layer 1" xmlns="http://www.w3.org/2000/svg" viewBox="0 0 1024 1024"><defs><style>.cls-1{fill:#52e609;}.cls-2{fill:#fff;}</style></defs><g id="Logo"><path class="cls-1" d="M962,512c0,248.56-201.36,450-450,450S62,760.55,62,512,263.46,62,512,62,962,263.47,962,512ZM512.06,239.54c-151.12,0-274.09,123-274.09,274.05s123,274.1,274.09,274.1,274-123,274-274.1S663.13,239.54,512.06,239.54Z"/><path d="M512,68.16C267.28,68.16,68.18,267.27,68.18,512S267.28,955.83,512,955.83,955.82,756.73,955.82,512,756.72,68.16,512,68.16Zm0,876.71C273.32,944.87,79.13,750.69,79.13,512S273.32,79.12,512,79.12,944.86,273.31,944.86,512,750.68,944.87,512,944.87Z"/><path d="M612.53,736.09c2.75,9.68,5.43,19.39,8.11,29.13a271.37,271.37,0,0,1-60.41,18.22c0-7.65,0-15.25-.1-22.85-.38-20.35-.36-40.54-6.3-60.59-5.56-18.76.47-36.51,12.18-51.87,5-6.59,10.52-13.23,17.08-18.14,14-10.45,23.41-24.28,32.68-38.55a76.85,76.85,0,0,1,13.72-16.39c2.54-2.18,9-3.07,11.31-1.35s3.39,8.17,2,11.25c-5.06,11.54-11.38,22.53-17.12,33.78-2.56,5-4.87,10.17-5.74,16.12,1.38-2.22,2.76-4.42,4.12-6.64a47.13,47.13,0,0,1,22.37-19.32,298.47,298.47,0,0,0,34.25-18c10-6,15.56-15.8,19.56-26.5l4.79-8.56c4-4,7.56-8.82,12.29-11.64,3.56-2.13,8.67-1.66,13.08-2.35-.33,3.91.46,8.39-1.18,11.64-6.75,13.32-13.66,26.63-21.68,39.19-4.4,6.89-11.43,12-16.75,18.4-9.52,11.39-18.6,23.15-27.94,34.69-8.62,10.65-17.24,21.3-26.07,31.76-4.81,5.7-10.41,10.74-15.05,16.56C611.88,706.5,608.05,720.34,612.53,736.09Zm-147.71,5c.57-12.76,2.76-25.56,5.4-38.1,3.42-16.21,2.57-31.83-6.41-45.69-6.47-10-14.06-19.9-23.13-27.46-12.42-10.34-21.91-22.55-30.56-35.84-3.9-6-7.79-12.33-13-17-3.21-2.83-9-2.76-13.61-4-.51,4.73-2.83,10.24-1.19,14,5,11.56,11.53,22.44,17.33,33.65,2,3.92,3.66,8,5.47,12.07L403.16,634c-6.34-15.1-18.39-22.81-33-28.38-9.8-3.75-19.86-8.77-27.46-15.76-7.88-7.25-12.94-17.57-19.23-26.55L317.8,554c-4.21-3.79-8-8.29-12.78-11.13-2.87-1.7-7.28-.81-11-1.08,0,3.43-1.11,7.34.16,10.19,2.9,6.52,7.08,12.46,10.52,18.76C313.07,586,321.24,601.1,335,613.08c10.16,8.85,17.29,21.15,25.88,31.82,8.94,11.1,16.95,23.23,27.26,32.89,20.34,19,31.19,39.87,21.58,68.23-2.17,6.38-4.15,12.82-6.07,19.28a271.62,271.62,0,0,0,60.85,18.24C464.33,769.22,464.19,755.12,464.82,741.06Zm245-200.53c.4-2.5-1.25-7.24-2.92-7.73-2.62-.77-7.3.21-8.87,2.21-3.81,4.84-6.12,10.84-9.43,16.12-5,7.93-10.21,15.7-15.37,23.52-.41.67-.84,1.33-1.31,2l-9.48,11.72L653.86,603c15.87-9.38,32-15.16,40.59-31.3,1.42-2.68,3.86-4.83,5.83-7.22l4.79-8.56C706.72,550.77,708.94,545.76,709.79,540.53ZM333.94,577.82c9,11.95,22.49,16.82,35.44,22.52l-6-8.34-12.46-18.77c-5.11-7.36-10.38-14.61-15.25-22.11-3.56-5.48-6.15-11.63-10.09-16.76-1.35-1.76-5.9-2.44-8.25-1.59-1.67.61-3.1,4.72-2.87,7.08.48,4.77,2.16,9.41,3.34,14.1l5.68,9.38C327,568.17,330.36,573.06,333.94,577.82Zm51.49,31.56,1.45-1.54c-12.3-13.79-21-29.26-23.71-47.77a50.46,50.46,0,0,0-4.63-15.58c-1.78-3.46-5.41-6.34-8.88-8.33-1.05-.6-6.42,3-6.23,4.05,2.09,11.08,4.88,22,7.49,33L363.38,592ZM673.2,574.65c5.5-9.16,4.35-20,6.54-30,.57-2.6-.59-5.58-1-8.38-3.35,1-8.37.92-9.72,3.12a55.22,55.22,0,0,0-7.19,18.06c-3.37,17.54-9.72,33.5-21.59,47-.84,1-1.5,2.07-2.25,3.12l1.9,1.91,22.48-21.19,9.48-11.72C672.36,576,672.79,575.32,673.2,574.65Z"/><path d="M512.06,228.73c-157.1,0-284.9,127.78-284.9,284.86S355,798.5,512.06,798.5,796.84,670.7,796.84,513.59,669.08,228.73,512.06,228.73Zm0,550c-146.18,0-265.12-119-265.12-265.13S365.88,248.51,512.06,248.51s265,118.92,265,265.08S658.18,778.72,512.06,778.72Z"/><path class="cls-2" d="M144.19,653.86l-2-10.58-9.34,5.19-.08-.11,6-8.85-10.21-3.15v-.14L139,634.43l-5-9.51.14-.12,8.75,6.23,3.17-10.3h.13L148,631.29l9.48-5,.11.17-6.17,8.65L161.62,638l0,.18-10.56,2,5.24,9.37-.1.08-8.92-6.06-2.93,10.31Zm17.45,38-3.15-10.31-8.74,6.15-.09-.09,5-9.44-10.49-2.05V676l10.28-2.9-6-8.93.12-.13,9.36,5.26L160,658.75h.13L163,669.06l8.89-6,.12.16-5.21,9.26,10.49,1.82,0,.17L167,677.52l6.21,8.76-.09.1-9.51-5.08-1.82,10.56ZM183,727.83l-4.23-9.91-8,7-.11-.09,4-9.91L164,714l0-.13,9.92-4L167,701.68l.11-.14,9.86,4.25.93-10.74.13,0,3.95,10,8.2-6.94.13.14-4.2,9.76,10.62.7.05.16-9.9,4.17,7.1,8-.09.11-10-4-.69,10.7Zm25,33.51-5.25-9.42-7.25,7.85-.11-.08,2.93-10.27-10.68.19,0-.12,9.45-5L189.32,737l.1-.15,10.26,3.18-.22-10.77.13,0,5,9.49L212,731l.16.12L209,741.24l10.63-.43.07.16-9.41,5.18,7.91,7.26-.07.12-10.36-3,.43,10.71Zm622.82-19L823,749.67l9.36,5.15-.05.13-10.67-.37,2.76,10.32-.12.08-7.12-8-5.38,9.32-.18-.06.62-10.72-10.4,2.8-.08-.11,8-7.12-9.32-5.34.09-.17,10.61.62-3-10.22.14-.11,7.3,7.88,5.14-9.42.13,0-.39,10.77,10.3-3Zm22.94-35-7.06,8.15,9.85,4.14,0,.13-10.66.75,3.83,10-.11.08-7.92-7.17-4.37,9.83-.18,0-.51-10.73-10.06,3.88-.08-.11,7.22-7.91L823.88,714l.06-.18,10.62-.5-4-9.85.13-.13,8.08,7.08,4.13-9.91.13,0,.74,10.75,9.93-4.06Zm19.13-37.2L866.76,679,877,682.09l0,.13-10.52,1.88,4.86,9.51-.09.1-8.64-6.3-3.31,10.24-.18,0L857.46,687l-9.59,4.92-.1-.1,6.34-8.63-10.23-3.27,0-.19,10.51-1.62-5.06-9.37.12-.13,8.79,6.18,3.05-10.29h.13l1.88,10.62,9.44-5.09Zm15.08-39-5.19,9.45,10.5,2v.13l-10.26,3,5.85,8.94-.09.11-9.25-5.35-2.21,10.53h-.18l-2.76-10.38-9,5.91-.11-.08,5.39-9.26L860.16,644l0-.2L870.46,641l-6-8.78.1-.15,9.4,5.21,1.94-10.55H876l3,10.36,8.84-6.07Z"/><path class="cls-2" d="M255,788.28h-3.17a3.26,3.26,0,0,0-2.42.7,2.25,2.25,0,0,0-.54,1,9.66,9.66,0,0,0-.22,1.8L248,804a14.1,14.1,0,0,0,0,2.16,5.27,5.27,0,0,0,.4,1.34,4.07,4.07,0,0,1,.42,1.92,2.35,2.35,0,0,1-.73,1.46q-1.56,1.65-3.9-.59l-5.86-5.61a2.07,2.07,0,0,1-.69-1.17,9.83,9.83,0,0,1,.13-2.35,63.8,63.8,0,0,0,.46-6.85,22.31,22.31,0,0,0-.06-2.37,1.39,1.39,0,0,0-.36-.9c-.6-.58-1.44-.3-2.51.82a3.42,3.42,0,0,0-1.23,2.47c0,.12.08.39.17.81a2.16,2.16,0,0,1-.46,2.14c-.65.68-1.57.73-2.75.16a22.73,22.73,0,0,1-5-3.94,25.37,25.37,0,0,1-3.85-4.33,2.47,2.47,0,0,1-.36-1.43,2,2,0,0,1,.53-1.25,2.34,2.34,0,0,1,2.28-.52,2.38,2.38,0,0,0,1.17,0,6.47,6.47,0,0,0,1.41-.8,46.63,46.63,0,0,0,5.45-5.08,55.93,55.93,0,0,0,5.55-6.45,3.93,3.93,0,0,0,.68-1.39,3.15,3.15,0,0,0-.15-1.36,2.11,2.11,0,0,1,.45-2.2,2,2,0,0,1,1.68-.68,5.56,5.56,0,0,1,2.38,1,28.69,28.69,0,0,1,4.25,3.48,14.48,14.48,0,0,1,3.16,3.91,2.16,2.16,0,0,1-.43,2.55,1.84,1.84,0,0,1-.85.56,5.89,5.89,0,0,1-1.6,0,3.11,3.11,0,0,0-1.45.6,9,9,0,0,0-1.75,1.41c-.82.86-1,1.48-.65,1.86a1.44,1.44,0,0,0,1,.35q.63,0,2.82-.27c1.69-.22,2.7-.5,3-.85a3,3,0,0,0,.5-1.12,2.08,2.08,0,0,1,.48-.9,2.29,2.29,0,0,1,2.78-.43,18.06,18.06,0,0,1,4.67,3.56,20.63,20.63,0,0,1,3.23,3.68,2.26,2.26,0,0,1-.16,3,2.17,2.17,0,0,1-1.18.63,1.82,1.82,0,0,1-1.25-.14,9.25,9.25,0,0,1-1.61-1.31,5,5,0,0,0-1.42-1A5.72,5.72,0,0,0,255,788.28Z"/><path class="cls-2" d="M286.07,820.25l-3.22,4.11a22.13,22.13,0,0,1-4.69,4.83q-3.75,2.32-9,.6a20.22,20.22,0,0,1-6.26-3.45q-5.4-4.23-6.63-9.36a8.45,8.45,0,0,1,.11-4.64,19,19,0,0,1,3.17-5.29c.65-.82,1.73-2.14,3.26-4,1.07-1.3,1.77-2.16,2.11-2.59a7.63,7.63,0,0,0,1.31-2.1,2.88,2.88,0,0,0-.13-1.73,2.53,2.53,0,0,1,.16-2.48,1.93,1.93,0,0,1,1.48-.72,4,4,0,0,1,2,.48,28.78,28.78,0,0,1,4.66,3.06,27.09,27.09,0,0,1,4.28,4c1,1.21,1.11,2.3.36,3.25a1.76,1.76,0,0,1-1.41.72,12.17,12.17,0,0,1-1.41-.27,1.65,1.65,0,0,0-1.41.28,9.61,9.61,0,0,0-1.81,1.9q-1.14,1.47-5.1,6.22a6.91,6.91,0,0,0-1.89,5.63,6.18,6.18,0,0,0,2.49,4,7.3,7.3,0,0,0,2.82,1.42,4.84,4.84,0,0,0,2.73,0,5,5,0,0,0,1.77-1,14.06,14.06,0,0,0,1.9-2.07l2.91-3.7a57,57,0,0,0,3.67-5.18,2.16,2.16,0,0,0-.18-2,5.37,5.37,0,0,1-.64-1.64,1.41,1.41,0,0,1,.3-1,2,2,0,0,1,2.36-.53,14.87,14.87,0,0,1,4.23,2.57,14.54,14.54,0,0,1,3.42,3.42,2,2,0,0,1,0,2.36,1.38,1.38,0,0,1-.77.57,6.33,6.33,0,0,1-1.63-.11,2.36,2.36,0,0,0-1.87.28A49.38,49.38,0,0,0,286.07,820.25Z"/><path class="cls-2" d="M304.46,819.29a34.06,34.06,0,0,1,5.15,3.83,3.13,3.13,0,0,1,.94,1.51,1.73,1.73,0,0,1-.18,1.42,1.86,1.86,0,0,1-1,.7,2.6,2.6,0,0,0-1.26.69,5.42,5.42,0,0,0-.3,2.73,2.1,2.1,0,0,0,.67,1.72,1.4,1.4,0,0,0,.92.2,7.8,7.8,0,0,0,1.58-.4,3.08,3.08,0,0,0,1.6-1,1.21,1.21,0,0,0,.23-.53,6.38,6.38,0,0,0-.09-1.15,2,2,0,0,1,.36-1.35q1.31-2,6.81,1.5a20.7,20.7,0,0,1,3.87,2.88,2.28,2.28,0,0,1,.54,1.32,2.14,2.14,0,0,1-.3,1.33,1.65,1.65,0,0,1-1.17.82,4.14,4.14,0,0,1-1.94-.42,4.84,4.84,0,0,0-2.28-.36,36,36,0,0,0-4.54,1,23.92,23.92,0,0,0-5.55,1.94,10.93,10.93,0,0,0-3,3.35c-.89,1.4-1.66,2.72-2.32,4a4.49,4.49,0,0,0-.63,1.74,3.14,3.14,0,0,0,.51,1.51,2.39,2.39,0,0,1,.22,2.55q-1.57,2.44-8.81-2.19a31.72,31.72,0,0,1-5.25-4.18q-1.92-1.92-1-3.36a2,2,0,0,1,2.4-.73,2.46,2.46,0,0,0,1.87-.09q1.37-.88,4.34-5.5a8.56,8.56,0,0,0,1.15-2.43,10.32,10.32,0,0,0,.07-2.89,55.81,55.81,0,0,0-1.14-7.46,6.36,6.36,0,0,0-1-2.4,8,8,0,0,1-1.05-1.61,1.7,1.7,0,0,1,.24-1.47c.51-.81,1.49-1,2.93-.58A28.89,28.89,0,0,1,304.46,819.29Z"/><path class="cls-2" d="M349.53,857.71l-2.39,4.65a22.34,22.34,0,0,1-3.68,5.63q-3.25,3-8.69,2.29a20,20,0,0,1-6.8-2.19q-6.11-3.14-8.29-7.94a8.45,8.45,0,0,1-.77-4.58,18.73,18.73,0,0,1,2.11-5.79c.48-.93,1.29-2.43,2.44-4.52.81-1.47,1.34-2.45,1.58-2.94a7.68,7.68,0,0,0,.89-2.31,2.91,2.91,0,0,0-.45-1.67,2.55,2.55,0,0,1-.32-2.47,2,2,0,0,1,1.31-1,4,4,0,0,1,2.09.09,28.52,28.52,0,0,1,5.16,2.12,27.62,27.62,0,0,1,5,3.15c1.2,1,1.52,2,1,3.12a1.73,1.73,0,0,1-1.25,1,9.21,9.21,0,0,1-1.44,0,1.67,1.67,0,0,0-1.33.54,10.35,10.35,0,0,0-1.41,2.21c-.57,1.11-1.84,3.46-3.82,7.08a6.94,6.94,0,0,0-.8,5.89,6.25,6.25,0,0,0,3.2,3.42,7.48,7.48,0,0,0,3.05.86,4.87,4.87,0,0,0,2.67-.57,5.16,5.16,0,0,0,1.55-1.29,14,14,0,0,0,1.47-2.4l2.15-4.18a54.3,54.3,0,0,0,2.62-5.78,2.17,2.17,0,0,0-.55-1.94,5.18,5.18,0,0,1-.94-1.49,1.37,1.37,0,0,1,.09-1.08,2,2,0,0,1,2.22-1,14.88,14.88,0,0,1,4.63,1.72,14.54,14.54,0,0,1,4,2.71,1.94,1.94,0,0,1,.48,2.32,1.4,1.4,0,0,1-.65.7,6.19,6.19,0,0,1-1.61.2,2.38,2.38,0,0,0-1.79.64A50.52,50.52,0,0,0,349.53,857.71Z"/><path class="cls-2" d="M369.78,855.81l6.49,12.58q.92,1.75,1.53,2c.69.27,1.33-.33,1.91-1.81a13.72,13.72,0,0,0,1.05-3.54,2.46,2.46,0,0,0-.71-1.86,3.2,3.2,0,0,1-.78-1.24,1.92,1.92,0,0,1,.12-1.23c.44-1.11,1.48-1.53,3.13-1.25a20.13,20.13,0,0,1,3.34,1.09,16.83,16.83,0,0,1,4,2,2.31,2.31,0,0,1,1,2.83,2.27,2.27,0,0,1-2.26,1.36,3.09,3.09,0,0,0-1,.14,1.72,1.72,0,0,0-.61.44,16.85,16.85,0,0,0-2.52,4.76l-2.55,6.49q-.58,1.49-1.59,4.08a21.84,21.84,0,0,1-2.41,4.89c-.86,1.15-1.77,1.54-2.71,1.16a2.21,2.21,0,0,1-1-.67,11.68,11.68,0,0,1-1-1.78L365.62,871a3.75,3.75,0,0,0-1.61-1.92q-1.22-.48-2.54,2.89a16.05,16.05,0,0,0-1.18,3.9,2.56,2.56,0,0,0,.67,2,2.08,2.08,0,0,1,.66,2.23q-1.08,2.77-7,.43a10.7,10.7,0,0,1-3.89-2.35,2.37,2.37,0,0,1-.69-2.59,1.61,1.61,0,0,1,.68-.9,5.74,5.74,0,0,1,1.61-.42,2.75,2.75,0,0,0,1.91-1.53,64.93,64.93,0,0,0,3.25-7.25,35.89,35.89,0,0,0,2.35-7.71,3.56,3.56,0,0,0-.06-1.5,3.48,3.48,0,0,0-.8-1.23,4.11,4.11,0,0,1-.9-1.35,1.58,1.58,0,0,1,0-1.15q.75-1.91,4.23-1.11a32.31,32.31,0,0,1,4,1.37A8.34,8.34,0,0,1,368.5,854,5.72,5.72,0,0,1,369.78,855.81Z"/><path class="cls-2" d="M409.38,867.81a17.6,17.6,0,0,1,4.87,2.22,5.93,5.93,0,0,0,1.36.76,6.78,6.78,0,0,0,1.86,0,3.18,3.18,0,0,1,.92.11,3,3,0,0,1,1.82,2,7.94,7.94,0,0,1,.32,5.25,4.6,4.6,0,0,1-1.71,2.61,3,3,0,0,1-2.67.41,4,4,0,0,1-2.1-1.53,19.31,19.31,0,0,1-1.15-2.42,6.89,6.89,0,0,0-4.41-4.27,5.4,5.4,0,0,0-4.81.74,8.47,8.47,0,0,0-3.07,4.82,14.4,14.4,0,0,0,.11,9.08,7.69,7.69,0,0,0,1.69,2.66,5.33,5.33,0,0,0,2.4,1.49,2.42,2.42,0,0,0,2-.2,2.65,2.65,0,0,0,1.21-1.63,1.64,1.64,0,0,0-.18-1.56,1.15,1.15,0,0,0-.36-.32c-.13,0-.52-.18-1.18-.36a2.14,2.14,0,0,1-1.31-1,2,2,0,0,1-.17-1.6c.32-1.14,1.31-1.73,3-1.78a20.09,20.09,0,0,1,6,.86,21.41,21.41,0,0,1,5.64,2.39c1.36.9,1.86,2,1.52,3.17a1.89,1.89,0,0,1-.89,1.14,2.23,2.23,0,0,1-1.52.27,1.81,1.81,0,0,0-1,.05,2.65,2.65,0,0,0-.75.93,11.13,11.13,0,0,1-5,4.48,13.32,13.32,0,0,1-4.94,1.13,17.25,17.25,0,0,1-5.49-.66,17.52,17.52,0,0,1-7.67-4.44,15,15,0,0,1-3.92-14.94,14.1,14.1,0,0,1,4-6.5,15,15,0,0,1,7.57-3.84A17.13,17.13,0,0,1,409.38,867.81Z"/><path class="cls-2" d="M449.9,892.34l2.37,9.27a6.35,6.35,0,0,0,.65,1.72A2.17,2.17,0,0,0,454,904c1,.35,1.39,1,1.23,1.82a2.4,2.4,0,0,1-2.27,1.86,19.89,19.89,0,0,1-6.18-.47,46.06,46.06,0,0,1-7-1.73,3.25,3.25,0,0,1-1.53-1.09,1.87,1.87,0,0,1-.36-1.51,1.41,1.41,0,0,1,.51-.92,3.2,3.2,0,0,1,1.33-.41c.71-.1,1.11-.42,1.21-1,.17-.94-.29-1.6-1.39-2a41,41,0,0,0-5.1-1.23,9.15,9.15,0,0,0-3.41-.29,1.76,1.76,0,0,0-.73.64,2.5,2.5,0,0,0-.45,1q-.09.47.06.63a6.16,6.16,0,0,0,1.09.67,1.56,1.56,0,0,1,1,1.76c-.31,1.67-2.47,2.12-6.46,1.37a19.81,19.81,0,0,1-4.91-1.41,1.89,1.89,0,0,1-1.11-2.21,1.43,1.43,0,0,1,.52-1,2.87,2.87,0,0,1,1.28-.43,4.6,4.6,0,0,0,2.33-1,21.05,21.05,0,0,0,2.71-3.36l4.19-5.93a49.41,49.41,0,0,0,3.21-4.93,12.31,12.31,0,0,0,1.24-3.37,11.32,11.32,0,0,1,.69-2.47,3.16,3.16,0,0,1,1.16-1.21,5,5,0,0,1,4-.77,6.27,6.27,0,0,1,3.74,2.43Q446.85,880.43,449.9,892.34Zm-15.12-.11,4.12.77c.75.15,1.16,0,1.23-.29a11.33,11.33,0,0,0-.94-3.7,11.62,11.62,0,0,0-.78-1.87,1.13,1.13,0,0,0-.71-.57q-.76-.14-1.53,1.17l-.89,1.38a11.9,11.9,0,0,0-1.37,2.4C433.84,891.87,434.13,892.1,434.78,892.23Z"/><path class="cls-2" d="M473.43,881.85l9.79,10.22c.92.95,1.6,1.45,2,1.49.74.06,1.18-.69,1.32-2.27a14,14,0,0,0,0-3.69,2.43,2.43,0,0,0-1.21-1.59,3.17,3.17,0,0,1-1.1-1,1.94,1.94,0,0,1-.24-1.21c.11-1.19,1-1.89,2.65-2.09a19.59,19.59,0,0,1,3.52.1,17.46,17.46,0,0,1,4.42.77,2.32,2.32,0,0,1,1.76,2.43,2.28,2.28,0,0,1-1.78,2,3.58,3.58,0,0,0-.92.41,1.71,1.71,0,0,0-.46.61,16.35,16.35,0,0,0-1.06,5.27l-.61,7c-.1,1.06-.22,2.52-.36,4.37a21.83,21.83,0,0,1-.93,5.37c-.5,1.34-1.26,2-2.27,1.88a2.25,2.25,0,0,1-1.11-.37,11.92,11.92,0,0,1-1.48-1.42l-11.64-12.42a3.7,3.7,0,0,0-2.09-1.39c-.87-.08-1.4,1.09-1.61,3.49a15.89,15.89,0,0,0,0,4.07,2.56,2.56,0,0,0,1.21,1.72,2.1,2.1,0,0,1,1.27,2q-.25,3-6.63,2.4a10.67,10.67,0,0,1-4.4-1.15,2.35,2.35,0,0,1-1.4-2.28,1.75,1.75,0,0,1,.4-1.06,5.73,5.73,0,0,1,1.42-.86,2.76,2.76,0,0,0,1.41-2,65.53,65.53,0,0,0,1.05-7.88,35.88,35.88,0,0,0,.06-8.06,3.67,3.67,0,0,0-.47-1.42,3.45,3.45,0,0,0-1.12-.95,4.12,4.12,0,0,1-1.25-1,1.59,1.59,0,0,1-.28-1.12q.18-2,3.74-2.27a34.29,34.29,0,0,1,4.19.2,8.47,8.47,0,0,1,2.46.48A6.16,6.16,0,0,1,473.43,881.85Z"/><path class="cls-2" d="M525.42,897l4.18,8.59a6.38,6.38,0,0,0,1,1.56,2.22,2.22,0,0,0,1.19.48c1,.14,1.55.65,1.56,1.54a2.36,2.36,0,0,1-1.84,2.27,19.76,19.76,0,0,1-6.15.79,46.75,46.75,0,0,1-7.17-.29,3.29,3.29,0,0,1-1.72-.76,1.88,1.88,0,0,1-.65-1.41,1.41,1.41,0,0,1,.31-1,3.11,3.11,0,0,1,1.22-.67q1-.36,1-1.17c0-1-.6-1.51-1.76-1.66a40.35,40.35,0,0,0-5.24-.17,9.43,9.43,0,0,0-3.4.39,1.77,1.77,0,0,0-.58.78,2.47,2.47,0,0,0-.24,1.08.74.74,0,0,0,.19.6,5.49,5.49,0,0,0,1.19.44,1.55,1.55,0,0,1,1.33,1.52q0,2.55-6.05,2.65a20.12,20.12,0,0,1-5.1-.39,1.89,1.89,0,0,1-1.53-1.94,1.51,1.51,0,0,1,.32-1,3,3,0,0,1,1.17-.68,4.6,4.6,0,0,0,2.09-1.41,20.75,20.75,0,0,0,2-3.83l2.91-6.66a52.24,52.24,0,0,0,2.14-5.48,12,12,0,0,0,.53-3.55,11.47,11.47,0,0,1,.19-2.56,3.17,3.17,0,0,1,.88-1.41,5.11,5.11,0,0,1,3.74-1.56,6.32,6.32,0,0,1,4.16,1.62Q520,885.93,525.42,897Zm-14.84,2.93,4.19-.07c.77,0,1.15-.19,1.15-.53a11.16,11.16,0,0,0-1.66-3.44,11.62,11.62,0,0,0-1.14-1.67,1.09,1.09,0,0,0-.82-.41c-.51,0-.93.49-1.26,1.45-.06.13-.25.64-.6,1.53a11.84,11.84,0,0,0-.85,2.62C509.59,899.76,509.92,899.93,510.58,899.92Z"/><path class="cls-2" d="M559.11,880.88,571,888.62a4.25,4.25,0,0,0,2.32,1c.73-.1,1-.94.77-2.5a14,14,0,0,0-.83-3.6,2.44,2.44,0,0,0-1.54-1.27,3.21,3.21,0,0,1-1.29-.7,1.91,1.91,0,0,1-.5-1.12c-.17-1.19.53-2.07,2.11-2.63a19.29,19.29,0,0,1,3.44-.71,17.32,17.32,0,0,1,4.48-.24,2.33,2.33,0,0,1,2.27,2,2.25,2.25,0,0,1-1.3,2.3,3.72,3.72,0,0,0-.8.61,1.71,1.71,0,0,0-.31.69,16.62,16.62,0,0,0,.15,5.38l1,6.9c.15,1.06.36,2.51.63,4.34a21.72,21.72,0,0,1,.31,5.45c-.18,1.42-.78,2.2-1.78,2.34a2.35,2.35,0,0,1-1.17-.11,11.58,11.58,0,0,1-1.76-1.05L563,896.18a3.77,3.77,0,0,0-2.34-.88c-.87.13-1.13,1.38-.79,3.77a16.58,16.58,0,0,0,.89,4,2.56,2.56,0,0,0,1.57,1.4c1,.34,1.57.87,1.68,1.62.28,2-1.7,3.24-5.92,3.84a10.5,10.5,0,0,1-4.54-.13,2.35,2.35,0,0,1-1.88-1.9,1.69,1.69,0,0,1,.14-1.12,6,6,0,0,1,1.2-1.17,2.72,2.72,0,0,0,.91-2.26,63.79,63.79,0,0,0-.74-7.91,36.41,36.41,0,0,0-1.76-7.88,3.61,3.61,0,0,0-.79-1.27,3.47,3.47,0,0,0-1.3-.68,4.12,4.12,0,0,1-1.45-.72,1.66,1.66,0,0,1-.53-1q-.29-2,3.14-3.05a33.18,33.18,0,0,1,4.12-.76,8.16,8.16,0,0,1,2.51-.08A5.7,5.7,0,0,1,559.11,880.88Z"/><path class="cls-2" d="M593.17,873.42a24.25,24.25,0,0,1,4.58-.56c2,0,3.1.55,3.37,1.77a1.33,1.33,0,0,1-.08,1,6.33,6.33,0,0,1-1.24,1.21,2.76,2.76,0,0,0-.8,2.38,44,44,0,0,0,1.09,6.42,71.68,71.68,0,0,0,2.57,9.8,2.2,2.2,0,0,0,.66.83,4,4,0,0,0,1.2.46,2,2,0,0,1,1.78,1.52c.25,1.11-.43,2.07-2,2.86a30.06,30.06,0,0,1-6.6,2.15q-6.81,1.5-7.38-1.1c-.14-.62.18-1.31,1-2a2.49,2.49,0,0,0,.84-2,82.26,82.26,0,0,0-1.83-10.2c-.78-3.57-1.47-5.81-2-6.73a3.13,3.13,0,0,0-1.74-1.24,5.08,5.08,0,0,1-1.35-.69,1.6,1.6,0,0,1-.51-.9,1.66,1.66,0,0,1,.56-1.62,10.2,10.2,0,0,1,2.85-1.62A28.17,28.17,0,0,1,593.17,873.42Z"/><path class="cls-2" d="M611.23,869a33.82,33.82,0,0,1,6.25-1.4,3.17,3.17,0,0,1,1.77.27,1.7,1.7,0,0,1,1,1.06,1.73,1.73,0,0,1-.13,1.22,2.81,2.81,0,0,0-.29,1.41,5.33,5.33,0,0,0,1.87,2,2.14,2.14,0,0,0,1.75.62,1.48,1.48,0,0,0,.74-.57,7.44,7.44,0,0,0,.73-1.46,3.09,3.09,0,0,0,.32-1.84,1.39,1.39,0,0,0-.25-.52,7.38,7.38,0,0,0-.93-.68,2,2,0,0,1-.79-1.15c-.46-1.55,1.4-2.94,5.58-4.19a21.35,21.35,0,0,1,4.71-1,2.3,2.3,0,0,1,1.35.45,2,2,0,0,1,.8,1.1,1.6,1.6,0,0,1-.13,1.42,4,4,0,0,1-1.59,1.19,4.88,4.88,0,0,0-1.76,1.5,36.34,36.34,0,0,0-2.22,4.06,23.21,23.21,0,0,0-2.15,5.48,10.38,10.38,0,0,0,.58,4.45c.47,1.59,1,3,1.5,4.36a4.39,4.39,0,0,0,.9,1.61,3.08,3.08,0,0,0,1.47.6c1.16.22,1.85.72,2.08,1.5q.84,2.79-7.41,5.24a31.32,31.32,0,0,1-6.59,1.26c-1.8.13-2.87-.34-3.19-1.44a2,2,0,0,1,1-2.29,2.42,2.42,0,0,0,1.15-1.48c.15-1.07-.29-3.36-1.34-6.87a8.32,8.32,0,0,0-1.09-2.46,10.19,10.19,0,0,0-2.14-1.94,54.47,54.47,0,0,0-6.4-4,6.24,6.24,0,0,0-2.47-.81,7.93,7.93,0,0,1-1.91-.25,1.73,1.73,0,0,1-1-1.14c-.27-.92.22-1.78,1.48-2.6A29.26,29.26,0,0,1,611.23,869Z"/><path class="cls-2" d="M649.68,855.85a15.33,15.33,0,0,1,10.08-.62,16.12,16.12,0,0,1,6.27,3.54,15.26,15.26,0,0,1,4.09,5.74,13.66,13.66,0,0,1,.24,9.62,15.68,15.68,0,0,1-5.07,7.23,18.27,18.27,0,0,1-4.89,2.92,17,17,0,0,1-7.15,1.18,14.25,14.25,0,0,1-8-2.87,14.92,14.92,0,0,1-5.05-6.62,14.65,14.65,0,0,1-.63-9.42,14.84,14.84,0,0,1,4.54-7.28A18.06,18.06,0,0,1,649.68,855.85Zm.38,6.46a3.25,3.25,0,0,0-2.06,2.54,5,5,0,0,0,.3,2.94,19.48,19.48,0,0,0,3,4.84,25.14,25.14,0,0,0,4.39,4.32,5.32,5.32,0,0,0,2.13.94,3.58,3.58,0,0,0,2.07-.15,3.23,3.23,0,0,0,2-2.1,5,5,0,0,0-.27-3.35,20.8,20.8,0,0,0-2.83-4.88,19.25,19.25,0,0,0-3.9-3.95,6.87,6.87,0,0,0-2.5-1.21A4,4,0,0,0,650.06,862.31Z"/><path class="cls-2" d="M702.75,863.9l-2.5,1.39c-1.75,1-3,1.74-3.8,2.24s-1.19.78-1.51,1a3,3,0,0,1-2.13.42,2,2,0,0,1-1.42-1,1.37,1.37,0,0,1-.21-1,7,7,0,0,1,.66-1.58,2.24,2.24,0,0,0,.11-1.59,33,33,0,0,0-1.43-3.67q-1.89-4.27-5.18-10.26a10.42,10.42,0,0,0-1.89-2.75,2.73,2.73,0,0,0-2-.45,1.92,1.92,0,0,1-2.09-.85,1.83,1.83,0,0,1,0-1.76,3.68,3.68,0,0,1,1.62-1.57c.42-.23,1-.51,1.66-.84,1.12-.55,2.33-1.18,3.6-1.88q1.41-.78,5.47-3.15c.85-.5,1.62-.94,2.32-1.33a18.77,18.77,0,0,1,4.24-1.81,7.69,7.69,0,0,1,3.4-.1,5.92,5.92,0,0,1,4.12,3.16,7,7,0,0,1,.85,2.82,5.82,5.82,0,0,1-.39,2.76,1.58,1.58,0,0,0-.13,1.31c.17.32.58.43,1.22.36a8.39,8.39,0,0,1,3.94.54,6.45,6.45,0,0,1,3.38,3.1,8.28,8.28,0,0,1,.74,6q-1,4.38-6.08,7.18c-.46.25-1.62.84-3.46,1.78S703.13,863.7,702.75,863.9Zm-9.89-21,2.12,3.86a3,3,0,0,0,.95,1.16,1,1,0,0,0,1-.07,2.73,2.73,0,0,0,1.57-2,4.93,4.93,0,0,0-.81-3,5.34,5.34,0,0,0-2.17-2.35,2.5,2.5,0,0,0-2.44.08,1.16,1.16,0,0,0-.71.87A2.78,2.78,0,0,0,692.86,842.85Zm5.94,10.79,1,1.78a10.85,10.85,0,0,0,2.14,3.07,1.61,1.61,0,0,0,1.89,0c1.9-1,2.24-2.68,1-4.9-1.52-2.77-3.34-3.58-5.47-2.41a1.73,1.73,0,0,0-1,1A2.23,2.23,0,0,0,698.8,853.64Z"/><path class="cls-2" d="M720.18,818.59a15.33,15.33,0,0,1,9.72-2.76,16.16,16.16,0,0,1,6.87,2.13,15.38,15.38,0,0,1,5.23,4.73,13.68,13.68,0,0,1,2.27,9.35,15.63,15.63,0,0,1-3.41,8.15,18.22,18.22,0,0,1-4.16,3.89,16.9,16.9,0,0,1-6.74,2.67,14.2,14.2,0,0,1-8.44-1.09,14.94,14.94,0,0,1-6.35-5.4,14.65,14.65,0,0,1,.27-17.14A17.89,17.89,0,0,1,720.18,818.59Zm1.74,6.22a3.24,3.24,0,0,0-1.46,2.92,4.89,4.89,0,0,0,.91,2.81,18.85,18.85,0,0,0,3.94,4.09,24.5,24.5,0,0,0,5.21,3.29,5.17,5.17,0,0,0,2.29.47,3.51,3.51,0,0,0,2-.59,3.22,3.22,0,0,0,1.5-2.47,5,5,0,0,0-1-3.22,20.83,20.83,0,0,0-3.81-4.16,19.52,19.52,0,0,0-4.65-3,7.15,7.15,0,0,0-2.71-.65A4.08,4.08,0,0,0,721.92,824.81Z"/><path class="cls-2" d="M757.36,812.87a1,1,0,0,0-.49,1,6.74,6.74,0,0,0,1.27,1.91,20.11,20.11,0,0,0,3,3.07,1.67,1.67,0,0,0,.67.31,3.84,3.84,0,0,0,1-.07,2.09,2.09,0,0,1,2.17.63,2.11,2.11,0,0,1-.11,2.67,21.49,21.49,0,0,1-4.31,4.28q-6.12,5-8,2.7a1.33,1.33,0,0,1-.34-.79,4.71,4.71,0,0,1,.28-1.35,3.24,3.24,0,0,0,.06-1.94,11,11,0,0,0-1.5-2.55q-.87-1.24-6.8-8.5a18.67,18.67,0,0,0-2.79-2.94,2.43,2.43,0,0,0-2-.39,4,4,0,0,1-1.49.16,1.46,1.46,0,0,1-.87-.55,1.86,1.86,0,0,1-.4-1.46,3.68,3.68,0,0,1,.77-1.74,10.41,10.41,0,0,1,1.8-1.78c.37-.3,1.32-1,2.87-2.07.3-.2.74-.55,1.34-1q1.49-1.22,3.81-3.44c1-.94,1.69-1.58,2.11-1.92a12.47,12.47,0,0,1,7.25-3.09,6.48,6.48,0,0,1,5.58,2.57,7,7,0,0,1,1.54,3.37,6.07,6.07,0,0,1-.47,3.52,1,1,0,0,0,0,1.06c.26.32.74.36,1.45.11a6.27,6.27,0,0,1,4.1-.18,12.91,12.91,0,0,1,4.36,3,2.33,2.33,0,0,0,3.4.62,1.24,1.24,0,0,1,.87,0,1.71,1.71,0,0,1,.81.54,2.22,2.22,0,0,1,.45,1.36,3.49,3.49,0,0,1-.36,1.66,11.86,11.86,0,0,1-3.28,3.76c-2.15,1.76-4.16,2.45-6,2.07a8.35,8.35,0,0,1-2.64-1,42.18,42.18,0,0,1-4-2.76,6.71,6.71,0,0,0-2.78-1.43A3,3,0,0,0,757.36,812.87Zm-7.87-7.66,3,4,.12.15a1.63,1.63,0,0,0,.82.65,1.19,1.19,0,0,0,.87-.38,3.45,3.45,0,0,0,1.5-2.48,4.63,4.63,0,0,0-1.3-2.95c-1.75-2.13-3.37-2.58-4.89-1.34a1.49,1.49,0,0,0-.66,1A2.18,2.18,0,0,0,749.49,805.21Z"/><path class="cls-2" d="M792.54,777.31l9,3.31a6.41,6.41,0,0,0,1.79.44,2.21,2.21,0,0,0,1.19-.47,1.51,1.51,0,0,1,2.19,0,2.38,2.38,0,0,1,.24,2.92,19.66,19.66,0,0,1-3.89,4.82,46.12,46.12,0,0,1-5.38,4.76,3.28,3.28,0,0,1-1.76.64,1.84,1.84,0,0,1-1.44-.57,1.37,1.37,0,0,1-.47-.94,3,3,0,0,1,.42-1.33,1.24,1.24,0,0,0-.1-1.53c-.67-.68-1.48-.67-2.42,0a40.23,40.23,0,0,0-3.91,3.51,9.25,9.25,0,0,0-2.17,2.63,1.74,1.74,0,0,0,.12,1,2.36,2.36,0,0,0,.56.94c.23.23.41.33.56.31a5.84,5.84,0,0,0,1.17-.51,1.54,1.54,0,0,1,2,.18q1.8,1.8-2.54,6.09a19.8,19.8,0,0,1-3.95,3.25,1.88,1.88,0,0,1-2.44-.34,1.44,1.44,0,0,1-.49-1,2.88,2.88,0,0,1,.37-1.3,4.58,4.58,0,0,0,.53-2.47,20.94,20.94,0,0,0-1.22-4.13L778,790.74a50.74,50.74,0,0,0-2.24-5.44,12.42,12.42,0,0,0-2.07-2.93,11.1,11.1,0,0,1-1.64-2,3.16,3.16,0,0,1-.34-1.64,5,5,0,0,1,1.62-3.71,6.27,6.27,0,0,1,4.12-1.7Q781,773.07,792.54,777.31Zm-8.68,12.39,3-3c.55-.55.7-.94.46-1.18a11.11,11.11,0,0,0-3.58-1.33,11,11,0,0,0-2-.42,1.12,1.12,0,0,0-.88.27c-.36.36-.33,1,.1,1.92,0,.13.26.63.63,1.51a11.43,11.43,0,0,0,1.2,2.49C783,790.26,783.39,790.16,783.86,789.7Z"/><path d="M237.75,726.72a19.07,19.07,0,0,1-3.57-7.56,7.46,7.46,0,0,0-.91-2.55,7.75,7.75,0,0,0-1.24-1.16,3.79,3.79,0,0,1-.58-.61,3.29,3.29,0,0,1-.53-2.92,12.62,12.62,0,0,1,4.83-7.32,5.74,5.74,0,0,1,5.51-1.27,5.06,5.06,0,0,1,2.48,1.76,4.13,4.13,0,0,1,1,2.28,6.14,6.14,0,0,1-.67,2.8,26,26,0,0,0-1.33,3.62,9.27,9.27,0,0,0-.24,2.61,10.06,10.06,0,0,0,2.07,5.83,5.77,5.77,0,0,0,4.61,2.39,8.89,8.89,0,0,0,5.61-2.18,17.26,17.26,0,0,0,5.62-7.6,10.84,10.84,0,0,0-1.69-11.09,14.42,14.42,0,0,0-3.47-3.17,9.46,9.46,0,0,0-3.8-1.56,3,3,0,0,1-1.92-.76,2.12,2.12,0,0,1-.33-2,3.6,3.6,0,0,1,1.34-2,8.78,8.78,0,0,1,3.58-1.52,9.68,9.68,0,0,1,4.06-.1,6.25,6.25,0,0,1,2.24,1.44A12.4,12.4,0,0,0,263,695.8a20.52,20.52,0,0,1,7.11,5.73,23.29,23.29,0,0,1,4.23,8.91,20.57,20.57,0,0,1-7,20.72,19,19,0,0,1-11.67,4.09,22.18,22.18,0,0,1-11.11-2.79A21.7,21.7,0,0,1,237.75,726.72Z"/><path d="M210.61,686.13a20.79,20.79,0,0,1-2.77-13.37,22,22,0,0,1,3.54-9,20.81,20.81,0,0,1,6.89-6.58A18.49,18.49,0,0,1,231.09,655a21.14,21.14,0,0,1,10.65,5.39,25,25,0,0,1,4.83,6,22.75,22.75,0,0,1,3,9.33,19.3,19.3,0,0,1-2.3,11.28,20.34,20.34,0,0,1-7.89,8,19.86,19.86,0,0,1-12.47,2.65A20.16,20.16,0,0,1,216.25,693,24.3,24.3,0,0,1,210.61,686.13Zm8.56-1.74a4.36,4.36,0,0,0,3.79,2.26,6.66,6.66,0,0,0,3.88-1,26.13,26.13,0,0,0,5.9-4.91,34.24,34.24,0,0,0,4.94-6.69,7.21,7.21,0,0,0,.85-3,4.93,4.93,0,0,0-.6-2.74,4.34,4.34,0,0,0-3.19-2.25,6.66,6.66,0,0,0-4.43,1,28.16,28.16,0,0,0-6,4.73,26.12,26.12,0,0,0-4.54,6,9.2,9.2,0,0,0-1.14,3.59A5.35,5.35,0,0,0,219.17,684.39Z"/><path d="M213.63,649a14.07,14.07,0,0,1-.53-1.44,53.09,53.09,0,0,0-1.82-5,17.58,17.58,0,0,0-1.22-2.43c-.35-.56-.57-.94-.66-1.13-.24-.55,0-1,.86-1.36a12.06,12.06,0,0,1,3.13-.77,21.84,21.84,0,0,1,4-.2,8.28,8.28,0,0,1,2.17.33,1.48,1.48,0,0,1,.89.82,7.91,7.91,0,0,1,.44,1.35,36.44,36.44,0,0,0,2,5.6c.38.86.77,1.64,1.16,2.33s.53,1,.66,1.29c.32.72,0,1.27-.79,1.64a12.59,12.59,0,0,1-3.13.64,20.4,20.4,0,0,1-3.63.16,7.33,7.33,0,0,1-2.31-.52A2.59,2.59,0,0,1,213.63,649Z"/><path d="M181.29,619.38a20.79,20.79,0,0,1,.1-13.65,21.84,21.84,0,0,1,5.36-8.11,20.77,20.77,0,0,1,8.12-5,18.47,18.47,0,0,1,13,.59,21.13,21.13,0,0,1,9.28,7.5,24.69,24.69,0,0,1,3.47,6.87,22.83,22.83,0,0,1,.92,9.75,19.2,19.2,0,0,1-4.61,10.54,20.21,20.21,0,0,1-9.4,6.18,19.74,19.74,0,0,1-12.75,0,20.09,20.09,0,0,1-9.39-6.8A24.24,24.24,0,0,1,181.29,619.38Zm8.74.09a4.36,4.36,0,0,0,3.23,3,6.66,6.66,0,0,0,4-.12,26,26,0,0,0,6.8-3.56,34.16,34.16,0,0,0,6.23-5.51,7.12,7.12,0,0,0,1.48-2.79,4.93,4.93,0,0,0,0-2.8,4.31,4.31,0,0,0-2.64-2.87,6.67,6.67,0,0,0-4.54,0,28.46,28.46,0,0,0-6.84,3.37A26.21,26.21,0,0,0,192,613.1a9.31,9.31,0,0,0-1.87,3.27A5.34,5.34,0,0,0,190,619.47Z"/><path d="M198.47,581.62l-15,2.51a10,10,0,0,0-3.62,1,3.33,3.33,0,0,0-.91,2.37q-.31,2.7-2.13,3a2.24,2.24,0,0,1-2.15-.75,6,6,0,0,1-1.21-3c-.08-.46-.24-1.59-.48-3.41l-.29-1.71q-.83-4.73-1-5.53c-.12-.54-.61-2.44-1.47-5.72-.3-1.08-.52-2.08-.68-3a17.89,17.89,0,0,1,.52-8.64,11.18,11.18,0,0,1,9.42-8.11,11.43,11.43,0,0,1,10.06,2.88,16.14,16.14,0,0,1,5,9.6c.17,1,.31,2.25.42,3.74.08.79.13,1.27.16,1.46.09.56.45.78,1.08.67l.17,0,4.64-1a4,4,0,0,0,1.95-.84,4.86,4.86,0,0,0,1.08-2q.69-2,1.86-2.22c1.19-.2,2.27.56,3.22,2.28a24.49,24.49,0,0,1,2.27,7.59q1.77,10.54-1.85,11.15a1.84,1.84,0,0,1-1.39-.24,10,10,0,0,1-1.67-1.92,2.13,2.13,0,0,0-1.71-.94C204.09,580.79,202,581.07,198.47,581.62Zm-20.76-9.74,9.69-1.62c.74-.12,1.16-.36,1.26-.71a5.52,5.52,0,0,0-1.54-5.13c-1.21-1.07-3-1.4-5.38-1s-4.14,1.44-5,3.07a5.36,5.36,0,0,0-.5,3.48Q176.6,572.08,177.71,571.88Z"/><path d="M166.5,539.15,166,524.3c-.09-3-.23-5.19-.4-6.56a21.74,21.74,0,0,0-.89-4,3.79,3.79,0,0,1-.21-.94,3.28,3.28,0,0,1,1.53-2.71,10.51,10.51,0,0,1,6.29-2.11,4.89,4.89,0,0,1,3,.69,2.56,2.56,0,0,1,1.15,2.15,2.43,2.43,0,0,1-.34,1.5,7.24,7.24,0,0,1-1.7,1.48A6.19,6.19,0,0,0,172,517.1a22.22,22.22,0,0,0-.44,6.42c.07,2.21.51,3.55,1.32,4a3.72,3.72,0,0,0,1.71.39c.72,0,2.54,0,5.47-.1,1.15,0,1.86-.25,2.13-.65a6.48,6.48,0,0,0,.32-3,2.56,2.56,0,0,0-.56-1.74,2.78,2.78,0,0,0-1.83-.63,12.89,12.89,0,0,1-2.31-.35,2.34,2.34,0,0,1-1.11-.76,2.12,2.12,0,0,1-.57-1.4,2.47,2.47,0,0,1,1.06-2.05,8,8,0,0,1,2.93-1.13,23.33,23.33,0,0,1,4.42-.56,17.19,17.19,0,0,1,7.53,1.17,2.52,2.52,0,0,1,1.66,2.32,1.59,1.59,0,0,1-.46,1.37,5,5,0,0,1-2.07.65,3.41,3.41,0,0,0-3.14,3.92,1.88,1.88,0,0,0,.88,1.75A6.7,6.7,0,0,0,192,527c.9,0,2.07-.13,3.5-.3a17.86,17.86,0,0,0,2.83-.48,1.8,1.8,0,0,0,1.16-1.47,17.15,17.15,0,0,0,.2-4,15,15,0,0,0-1.33-6.49,8.2,8.2,0,0,0-4.14-3.45,7.38,7.38,0,0,1-2.3-1.39,2.58,2.58,0,0,1,.35-3.71,4.34,4.34,0,0,1,2.62-.88,13.8,13.8,0,0,1,4.36.76,21.4,21.4,0,0,1,4.69,2,5.63,5.63,0,0,1,1.35,1.06,1.72,1.72,0,0,1,.37,1.08,11.17,11.17,0,0,1-.12,1.6,33.07,33.07,0,0,0-.27,5l.8,24.49a3.53,3.53,0,0,1-.58,2.3,2.25,2.25,0,0,1-1.81.87,1.7,1.7,0,0,1-1.22-.31,5.7,5.7,0,0,1-1-1.56,3.17,3.17,0,0,0-1-1.25,4.09,4.09,0,0,0-1.64-.6,57.61,57.61,0,0,0-11.79-.57q-11.14.36-14,1.85a1.92,1.92,0,0,0-.79.66,5.5,5.5,0,0,0-.5,1.46,2.11,2.11,0,0,1-2.15,1.72,2.65,2.65,0,0,1-1.66-.5,2.57,2.57,0,0,1-1-1.41A23.35,23.35,0,0,1,166.5,539.15Z"/><path d="M190.32,482.2c-.08.73.09,1.22.5,1.46a9.62,9.62,0,0,0,3.05.64,27.57,27.57,0,0,0,5.73.16,2.08,2.08,0,0,0,.94-.34,5,5,0,0,0,.9-1,2.84,2.84,0,0,1,2.68-1.46c1.27.14,2.07,1,2.43,2.69a29.4,29.4,0,0,1-.09,8.2q-1.16,10.63-5.18,10.2a1.78,1.78,0,0,1-1.07-.44,6.46,6.46,0,0,1-1-1.56,4.19,4.19,0,0,0-1.78-1.92,14.51,14.51,0,0,0-3.86-1.05q-2-.36-14.6-1.73a24.22,24.22,0,0,0-5.47-.19,3.28,3.28,0,0,0-2.29,1.5,5.23,5.23,0,0,1-1.29,1.57,1.88,1.88,0,0,1-1.35.29,2.48,2.48,0,0,1-1.77-1,5,5,0,0,1-.91-2.41,14.72,14.72,0,0,1,.05-3.42c.07-.63.34-2.2.8-4.71.09-.47.19-1.23.31-2.26.18-1.73.32-4,.4-6.93.06-1.84.14-3.12.21-3.85a16.78,16.78,0,0,1,4.07-9.84,8.74,8.74,0,0,1,7.8-2.82,9.47,9.47,0,0,1,4.68,1.79,8.15,8.15,0,0,1,2.88,3.83c.24.64.57,1,1,1s1.06-.35,1.5-1.26a8.47,8.47,0,0,1,3.79-4.06,17.35,17.35,0,0,1,7-1.28,3.17,3.17,0,0,0,3.87-2.63,1.73,1.73,0,0,1,.83-.84,2.2,2.2,0,0,1,1.29-.24,3,3,0,0,1,1.72.89,4.85,4.85,0,0,1,1.23,1.93,16.19,16.19,0,0,1,.4,6.73c-.41,3.74-1.68,6.3-3.83,7.7a12.07,12.07,0,0,1-3.53,1.49,59,59,0,0,1-6.46,1.11,9.2,9.2,0,0,0-4,1.26A4,4,0,0,0,190.32,482.2Zm-14.84.07,6.66,1.05.26,0a2.21,2.21,0,0,0,1.41-.16,1.59,1.59,0,0,0,.48-1.18,4.7,4.7,0,0,0-.91-3.82,6.3,6.3,0,0,0-4-1.6q-5.55-.6-6,3.33a2.07,2.07,0,0,0,.34,1.64A3,3,0,0,0,175.48,482.27Z"/><path d="M200.21,415.93l12.72-2.23a8.18,8.18,0,0,0,2.39-.7,3,3,0,0,0,1.07-1.36c.56-1.28,1.42-1.77,2.58-1.46,1.35.37,2.11,1.45,2.26,3.25S221,418,220,421.7a61.17,61.17,0,0,1-3.05,9.21,4.51,4.51,0,0,1-1.61,1.94,2.53,2.53,0,0,1-2.08.32,1.88,1.88,0,0,1-1.18-.78,4.09,4.09,0,0,1-.42-1.83c-.06-1-.45-1.53-1.16-1.72-1.24-.34-2.18.22-2.81,1.67a55.66,55.66,0,0,0-2.18,6.74c-.66,2.48-.91,4-.74,4.56a2.27,2.27,0,0,0,.79,1.05,3.49,3.49,0,0,0,1.3.71,1,1,0,0,0,.86,0,7.79,7.79,0,0,0,1-1.39,2.09,2.09,0,0,1,2.47-1.16q3.32.9,1.17,8.85a26.83,26.83,0,0,1-2.4,6.47,2.54,2.54,0,0,1-3.09,1.26,2,2,0,0,1-1.23-.79,4.09,4.09,0,0,1-.44-1.78,6.35,6.35,0,0,0-1.06-3.24,28.92,28.92,0,0,0-4.24-4l-7.56-6.25a67.21,67.21,0,0,0-6.31-4.83,16.4,16.4,0,0,0-4.41-2,14.9,14.9,0,0,1-3.26-1.2,4.34,4.34,0,0,1-1.5-1.67,6.82,6.82,0,0,1-.63-5.44,8.41,8.41,0,0,1,3.65-4.79Q183.83,418.82,200.21,415.93Zm-1.72,20.37,1.47-5.47c.27-1,.19-1.57-.26-1.69-.61-.16-2.31.13-5.08.88a15.19,15.19,0,0,0-2.6.85,1.5,1.5,0,0,0-.84.91c-.18.67.29,1.4,1.42,2.18.14.12.73.57,1.76,1.34a16.2,16.2,0,0,0,3.09,2.09C197.91,437.52,198.26,437.15,198.49,436.3Z"/><path d="M190.74,385.4l6-14a19,19,0,0,0,1.15-4.38,5.63,5.63,0,0,1,.39-1.5q.91-2.16,5-2.82a13.1,13.1,0,0,1,7.43.77,4.31,4.31,0,0,1,2.77,2.85,4.5,4.5,0,0,1-.29,2.89,4.33,4.33,0,0,1-1.83,2.11,9,9,0,0,1-3.47.94,11.49,11.49,0,0,0-2.74.46,1.83,1.83,0,0,0-1,1,1.61,1.61,0,0,0,.22,1.76,6.87,6.87,0,0,0,2.53,1.58l14.88,6.37a9.28,9.28,0,0,0,3.52.94,3.56,3.56,0,0,0,2.37-1.13,6.77,6.77,0,0,1,2-1.46,2.28,2.28,0,0,1,1.72.13c1.28.54,1.86,1.81,1.74,3.8a27.42,27.42,0,0,1-2.47,8.36q-2.82,6.59-5.28,9.31-2,2.3-4.07,1.43a2.1,2.1,0,0,1-1.29-1.68,20,20,0,0,1,.17-2.16,2.23,2.23,0,0,0-.52-1.87,12.46,12.46,0,0,0-2.89-2q-2-1.1-6.54-3.27t-8-3.62a11.84,11.84,0,0,0-3.56-1.08,1.4,1.4,0,0,0-1.53.79,2.87,2.87,0,0,0,.63,2.65,16.93,16.93,0,0,1,2.33,4.46,4.66,4.66,0,0,1-.09,3.07,3.21,3.21,0,0,1-2.08,1.91,4.42,4.42,0,0,1-3.15-.25,11.31,11.31,0,0,1-3.31-2.29,16,16,0,0,1-2.8-3.56c-1.23-2.12-1.57-3.83-1-5.14a5.59,5.59,0,0,1,.68-1.16c.6-.87,1.07-1.6,1.4-2.18A21,21,0,0,0,190.74,385.4Z"/><path d="M210.57,343.21a32.5,32.5,0,0,1,3.56-5.13c1.74-2,3.35-2.62,4.83-1.78a1.79,1.79,0,0,1,.9,1,8.77,8.77,0,0,1,.09,2.32,3.77,3.77,0,0,0,1.68,3,58.46,58.46,0,0,0,7.44,4.69q9.62,5.43,12.17,6.25a3,3,0,0,0,1.43.09,5.46,5.46,0,0,0,1.56-.8,2.73,2.73,0,0,1,3.12-.42c1.35.76,1.69,2.3,1,4.63a40.45,40.45,0,0,1-3.79,8.58q-4.64,8.2-7.76,6.44c-.75-.43-1.15-1.36-1.2-2.8a3.38,3.38,0,0,0-1.24-2.63,109.21,109.21,0,0,0-11.9-7.36q-6.44-3.63-8.62-4a4.31,4.31,0,0,0-2.82.64,6.89,6.89,0,0,1-1.91.74,2.18,2.18,0,0,1-1.36-.3,2.25,2.25,0,0,1-1.13-2,13.79,13.79,0,0,1,.94-4.33A36.63,36.63,0,0,1,210.57,343.21Z"/><path d="M250.25,301.44,264,328a11,11,0,0,1,1.39,3.89,4.13,4.13,0,0,1-.89,2.79,5,5,0,0,1-2,1.64,4.07,4.07,0,0,1-1.65.42,12.31,12.31,0,0,1-2.51-.36l-28-5.88a10.67,10.67,0,0,0-3.46-.34,4.2,4.2,0,0,0-2.2,1.21,1.94,1.94,0,0,1-2.75.13q-1.78-1.32-1-4.47a24.56,24.56,0,0,1,4.18-7.72,30.88,30.88,0,0,1,5.85-6.46q2.37-1.71,3.88-.6a2.88,2.88,0,0,1,.93,2.55c0,.93.13,1.53.5,1.8a5.1,5.1,0,0,0,1.78.66l8.7,1.91q1.91.44,2.49-.36a2.13,2.13,0,0,0,.24-1.94,21.34,21.34,0,0,0-1.83-3.85q-2.7-4.82-3.21-5.66a4.2,4.2,0,0,0-.91-1.13,2,2,0,0,0-2.16.1,2.3,2.3,0,0,1-2.49,0q-2.78-2,2.68-9.47a19.5,19.5,0,0,1,4.44-4.79,2.57,2.57,0,0,1,3.15,0q1.72,1.26.51,3.46a5.53,5.53,0,0,0-.88,2.18A9.24,9.24,0,0,0,250.25,301.44Z"/><path d="M255.84,281.51l10.41-10.6q3.17-3.21,4.47-4.82a20.69,20.69,0,0,0,2.28-3.41,3.61,3.61,0,0,1,.54-.8,3.29,3.29,0,0,1,3-.77,10.6,10.6,0,0,1,5.87,3.1,4.87,4.87,0,0,1,1.56,2.64,2.58,2.58,0,0,1-.76,2.32,2.44,2.44,0,0,1-1.32.78,7,7,0,0,1-2.25-.2,6.11,6.11,0,0,0-4.1.49,22.13,22.13,0,0,0-4.95,4.11q-2.33,2.37-2,3.71a4,4,0,0,0,.9,1.52q.72.8,3.85,3.87c.82.82,1.47,1.18,1.94,1.1a6.47,6.47,0,0,0,2.43-1.87,2.59,2.59,0,0,0,.87-1.61,2.8,2.8,0,0,0-.8-1.76,13,13,0,0,1-1.35-1.91,2.44,2.44,0,0,1-.21-1.33,2.05,2.05,0,0,1,.62-1.37,2.46,2.46,0,0,1,2.22-.65,8,8,0,0,1,2.83,1.34,22.54,22.54,0,0,1,3.46,2.81,17.1,17.1,0,0,1,4.34,6.25,2.51,2.51,0,0,1-.52,2.81,1.6,1.6,0,0,1-1.31.61,5,5,0,0,1-1.9-1.05,3.42,3.42,0,0,0-5,.43,1.88,1.88,0,0,0-.65,1.84,6.6,6.6,0,0,0,1.84,2.48c.64.63,1.52,1.41,2.63,2.33a19,19,0,0,0,2.31,1.71,1.76,1.76,0,0,0,1.85-.18,16.6,16.6,0,0,0,3.05-2.62,15,15,0,0,0,3.78-5.44,8.22,8.22,0,0,0-.37-5.38,7.49,7.49,0,0,1-.58-2.62,2.47,2.47,0,0,1,.77-1.61,2.4,2.4,0,0,1,2.16-.69,4.23,4.23,0,0,1,2.44,1.28,13.81,13.81,0,0,1,2.47,3.68,21.6,21.6,0,0,1,1.76,4.8,6.46,6.46,0,0,1,.17,1.71,1.83,1.83,0,0,1-.54,1,11.27,11.27,0,0,1-1.23,1,33.47,33.47,0,0,0-3.78,3.22l-17.17,17.48a3.51,3.51,0,0,1-2.06,1.17,2.22,2.22,0,0,1-1.88-.71,1.79,1.79,0,0,1-.62-1.09,5.85,5.85,0,0,1,.44-1.81,3.26,3.26,0,0,0,.24-1.56,4.19,4.19,0,0,0-.7-1.6,58.19,58.19,0,0,0-7.72-8.92q-8-7.81-11-8.87a2.21,2.21,0,0,0-1-.12,6.44,6.44,0,0,0-1.4.65,2.11,2.11,0,0,1-2.72-.36,2.64,2.64,0,0,1-.79-1.55,2.55,2.55,0,0,1,.33-1.7A23.27,23.27,0,0,1,255.84,281.51Z"/><path d="M312.94,230.43a27.93,27.93,0,0,1,7.23-3.27,3.73,3.73,0,0,0,.86-.39,9,9,0,0,0,1.12-1.42,2.78,2.78,0,0,1,.7-.71q1.59-1.11,5.11.17a10.14,10.14,0,0,1,5.11,3.54,4,4,0,0,1,.78,2.79,3,3,0,0,1-1.29,2.26,3.36,3.36,0,0,1-1.81.7,30.94,30.94,0,0,1-4.18-.42q-4.69-.66-7.44,1.26a4,4,0,0,0-1.67,2.13,2.49,2.49,0,0,0,.39,2.23q1.44,2.05,5.79.56a65.18,65.18,0,0,1,7.75-2.28q8.08-1.31,12.08,4.4a12.16,12.16,0,0,1,1.66,11.12q-1.92,6.22-8.72,11a37.46,37.46,0,0,1-6.89,3.76,18.77,18.77,0,0,1-6,1.7q-1.67,0-4.36-1.86a18,18,0,0,1-4.38-4.32,3.38,3.38,0,0,1-.76-2.08,2.22,2.22,0,0,1,1-1.81,2.88,2.88,0,0,1,2.38-.28,42.41,42.41,0,0,1,4.68,1.69,7.76,7.76,0,0,0,4.32.25,11.35,11.35,0,0,0,4.56-1.88,6.76,6.76,0,0,0,2.38-2.64,2.35,2.35,0,0,0-.08-2.43,2.48,2.48,0,0,0-2-1,10.47,10.47,0,0,0-3.66.66,46,46,0,0,1-6.53,1.67,19.4,19.4,0,0,1-4.88.08q-6.06-.69-9-4.9a11.09,11.09,0,0,1-1.87-4.74,12.42,12.42,0,0,1,.34-5.34A17.8,17.8,0,0,1,312.94,230.43Z"/><path d="M376.42,216.94l10.18,7.93a8.17,8.17,0,0,0,2.13,1.3,2.83,2.83,0,0,0,1.72-.11c1.33-.45,2.27-.14,2.81.93q1,1.88-.88,3.86c-1.23,1.32-3.56,2.85-7,4.61a61.73,61.73,0,0,1-8.87,3.91,4.42,4.42,0,0,1-2.53.1,2.52,2.52,0,0,1-1.63-1.32,1.9,1.9,0,0,1-.21-1.4,4.09,4.09,0,0,1,1.08-1.54,1.67,1.67,0,0,0,.5-2c-.59-1.15-1.63-1.47-3.13-1a55.66,55.66,0,0,0-6.46,2.92c-2.28,1.16-3.57,2-3.88,2.5a2.31,2.31,0,0,0-.25,1.29,3.64,3.64,0,0,0,.35,1.45c.19.37.39.58.59.62a7.29,7.29,0,0,0,1.72-.18,2.09,2.09,0,0,1,2.51,1q1.56,3.06-5.77,6.81a27.07,27.07,0,0,1-6.41,2.56,2.55,2.55,0,0,1-3-1.44,2,2,0,0,1-.23-1.44,3.8,3.8,0,0,1,1-1.53,6.21,6.21,0,0,0,1.68-3,28.08,28.08,0,0,0,.13-5.83l-.43-9.8a73.07,73.07,0,0,0-.66-7.92,16.67,16.67,0,0,0-1.47-4.62,15.09,15.09,0,0,1-1.3-3.22,4.39,4.39,0,0,1,.23-2.24,6.86,6.86,0,0,1,3.61-4.12,8.51,8.51,0,0,1,6-.5Q363.29,206.74,376.42,216.94Zm-16.26,12.39,5-2.58c.92-.47,1.28-.92,1.07-1.33s-1.64-1.62-4.06-3.18a15.75,15.75,0,0,0-2.38-1.35,1.49,1.49,0,0,0-1.24,0c-.61.31-.83,1.15-.66,2.51,0,.19.07.92.19,2.21a16.59,16.59,0,0,0,.52,3.69C358.87,229.72,359.37,229.73,360.16,229.33Z"/><path d="M418.62,190l-3.79,29.7a10.76,10.76,0,0,1-1.07,4,4.11,4.11,0,0,1-2.31,1.79,5.13,5.13,0,0,1-2.55.24,4.17,4.17,0,0,1-1.6-.6,12.49,12.49,0,0,1-1.86-1.73L385.78,202.6a10.81,10.81,0,0,0-2.65-2.25,4.11,4.11,0,0,0-2.49-.26,1.94,1.94,0,0,1-2.34-1.46q-.72-2.1,1.75-4.22a24.59,24.59,0,0,1,7.83-4,30.75,30.75,0,0,1,8.49-2c1.94,0,3.12.53,3.53,1.72a2.87,2.87,0,0,1-.69,2.62c-.56.74-.76,1.33-.61,1.77a5.07,5.07,0,0,0,1.08,1.55l6.08,6.53q1.32,1.44,2.25,1.11a2.15,2.15,0,0,0,1.3-1.45,21.31,21.31,0,0,0,.68-4.21q.52-5.5.58-6.48a4,4,0,0,0-.1-1.45q-.32-.93-1.83-1.14a2.29,2.29,0,0,1-2.07-1.4q-1.12-3.24,7.59-6.25a20,20,0,0,1,6.37-1.42,2.58,2.58,0,0,1,2.62,1.77c.46,1.35,0,2.39-1.55,3.13a5.87,5.87,0,0,0-2,1.29A9.43,9.43,0,0,0,418.62,190Z"/><path d="M440.33,175.15a31.85,31.85,0,0,1,6.19-.75c2.67,0,4.19.77,4.54,2.43a1.81,1.81,0,0,1-.11,1.31,8.93,8.93,0,0,1-1.68,1.62,3.77,3.77,0,0,0-1.1,3.22,60.53,60.53,0,0,0,1.44,8.67q2.33,10.8,3.41,13.25a2.73,2.73,0,0,0,.88,1.12,5,5,0,0,0,1.63.64,2.75,2.75,0,0,1,2.39,2.06c.32,1.51-.6,2.79-2.78,3.85a40.28,40.28,0,0,1-8.93,2.87q-9.21,2-10-1.53c-.18-.85.25-1.77,1.3-2.76a3.37,3.37,0,0,0,1.14-2.67,110.34,110.34,0,0,0-2.41-13.79q-1.54-7.23-2.72-9.1a4.28,4.28,0,0,0-2.34-1.69,7,7,0,0,1-1.83-.93,2.16,2.16,0,0,1-.68-1.22,2.25,2.25,0,0,1,.76-2.19,14,14,0,0,1,3.86-2.17A36.59,36.59,0,0,1,440.33,175.15Z"/><path d="M473.47,171.74,488.93,183c1.45,1.05,2.47,1.55,3.07,1.5,1-.09,1.4-1.2,1.21-3.33a18.6,18.6,0,0,0-.88-4.91,3.29,3.29,0,0,0-2-1.83,4.22,4.22,0,0,1-1.69-1,2.62,2.62,0,0,1-.6-1.55c-.15-1.62.86-2.75,3-3.41a26.33,26.33,0,0,1,4.69-.71,23.23,23.23,0,0,1,6.06,0c1.82.37,2.79,1.31,2.93,2.81a3.06,3.06,0,0,1-1.91,3,4.6,4.6,0,0,0-1.12.77,2.42,2.42,0,0,0-.47.91c-.4,1.32-.46,3.74-.16,7.27l.84,9.38q.19,2.16.56,5.9a29.4,29.4,0,0,1,.06,7.36c-.35,1.91-1.21,2.93-2.57,3.05a3.11,3.11,0,0,1-1.58-.24,15.53,15.53,0,0,1-2.29-1.53l-18.44-13.75a5,5,0,0,0-3.11-1.34q-1.76.15-1.32,5a21.84,21.84,0,0,0,.94,5.42,3.41,3.41,0,0,0,2,2c1.34.52,2.06,1.28,2.15,2.3q.36,4-8.25,4.77a14.16,14.16,0,0,1-6.12-.48,3.17,3.17,0,0,1-2.4-2.7,2.26,2.26,0,0,1,.27-1.5,7.87,7.87,0,0,1,1.69-1.49,3.66,3.66,0,0,0,1.39-3,90.21,90.21,0,0,0-.47-10.72,49,49,0,0,0-1.84-10.75,5,5,0,0,0-1-1.77,4.84,4.84,0,0,0-1.72-1,5.79,5.79,0,0,1-1.91-1.08,2.2,2.2,0,0,1-.63-1.42c-.17-1.84,1.31-3.15,4.43-3.91a46.24,46.24,0,0,1,5.62-.74,11.49,11.49,0,0,1,3.39.06A8.19,8.19,0,0,1,473.47,171.74Z"/><path d="M534,168.17a23.36,23.36,0,0,1,7,1.51,8.16,8.16,0,0,0,2,.62,9,9,0,0,0,2.46-.51,3.83,3.83,0,0,1,1.26-.12,4.06,4.06,0,0,1,3,2.1,10.7,10.7,0,0,1,1.95,6.84,6.18,6.18,0,0,1-1.51,3.93,4.1,4.1,0,0,1-3.4,1.32,5.48,5.48,0,0,1-3.21-1.42,25.19,25.19,0,0,1-2.22-2.86c-2-2.73-4.31-4.18-7.05-4.36a7.28,7.28,0,0,0-6.13,2.37,11.4,11.4,0,0,0-2.67,7.24,19.41,19.41,0,0,0,2.78,12,10.34,10.34,0,0,0,3,3,7.32,7.32,0,0,0,3.6,1.28,3.28,3.28,0,0,0,2.53-.83,3.54,3.54,0,0,0,1.12-2.5,2.25,2.25,0,0,0-.68-2,1.38,1.38,0,0,0-.58-.31q-.27-.06-1.65-.15a2.84,2.84,0,0,1-2-.92,2.66,2.66,0,0,1-.7-2.06q.15-2.38,3.39-3.2a27.06,27.06,0,0,1,8.11-.59,28.83,28.83,0,0,1,8.13,1.53c2.05.78,3,2,2.92,3.74a2.52,2.52,0,0,1-.84,1.76,3,3,0,0,1-1.93.79,2.45,2.45,0,0,0-1.34.36,3.92,3.92,0,0,0-.71,1.45,15.16,15.16,0,0,1-5.33,7.37,18.17,18.17,0,0,1-6.19,2.91,22.76,22.76,0,0,1-7.44.71,23.6,23.6,0,0,1-11.41-3.64,20,20,0,0,1-7.73-8.82,20.25,20.25,0,0,1-1.76-9.76,18.94,18.94,0,0,1,3.46-9.74,20.24,20.24,0,0,1,8.88-7.26A23.24,23.24,0,0,1,534,168.17Z"/><path d="M581.51,174.47a28.18,28.18,0,0,1,7.35,3,3.15,3.15,0,0,0,.87.36,8.24,8.24,0,0,0,1.8-.16,2.81,2.81,0,0,1,1,0q1.89.39,3.39,3.82a10.3,10.3,0,0,1,.93,6.15,4,4,0,0,1-1.5,2.48,3,3,0,0,1-2.53.62,3.5,3.5,0,0,1-1.74-.83,31.51,31.51,0,0,1-2.57-3.33c-1.83-2.58-3.83-4.1-6-4.55a4,4,0,0,0-2.69.25,2.49,2.49,0,0,0-1.36,1.81c-.34,1.64.85,3.18,3.56,4.6a65.51,65.51,0,0,1,7,4.06q6.5,5,5.09,11.82a12.17,12.17,0,0,1-7,8.83q-5.83,2.88-14,1.2a36.46,36.46,0,0,1-7.47-2.43,18.58,18.58,0,0,1-5.38-3.22q-1.17-1.19-1.64-4.45a17.75,17.75,0,0,1,.13-6.15,3.32,3.32,0,0,1,1-2,2.19,2.19,0,0,1,2-.54,2.88,2.88,0,0,1,1.84,1.53,42,42,0,0,1,2,4.57,7.79,7.79,0,0,0,2.78,3.31,11.5,11.5,0,0,0,4.5,2,6.75,6.75,0,0,0,3.55-.08,2.35,2.35,0,0,0,1.72-1.73,2.5,2.5,0,0,0-.62-2.16,10.42,10.42,0,0,0-3-2.21,47.3,47.3,0,0,1-5.69-3.6,19.12,19.12,0,0,1-3.41-3.49q-3.66-4.89-2.62-9.92a11.22,11.22,0,0,1,2.15-4.62,12.37,12.37,0,0,1,4.13-3.41A17.78,17.78,0,0,1,581.51,174.47Z"/><path d="M642.47,192.05a14,14,0,0,1,5.72,4.19q2,2.63,1.15,4.66a3.2,3.2,0,0,1-1.82,1.71,3.1,3.1,0,0,1-2.46,0,2.15,2.15,0,0,1-.77-.51c-.17-.21-.6-.84-1.27-1.9a5,5,0,0,0-2.24-2,3.11,3.11,0,0,0-2.68,0,4,4,0,0,0-2,2.14,3.3,3.3,0,0,0,.34,3.6,11.76,11.76,0,0,0,2.22,1.52c1,.59,1.25,1.55.67,2.9a3.76,3.76,0,0,1-3.16,2.45,10,10,0,0,1-3.26-.52c-.89-.23-1.65.39-2.29,1.88a11.46,11.46,0,0,0-.66,6.16,12.16,12.16,0,0,0,2.3,5.64,9.89,9.89,0,0,0,4,3.27,9.65,9.65,0,0,0,6.47.51,5.77,5.77,0,0,0,4.07-3.41,3.12,3.12,0,0,0,0-2.62,3.71,3.71,0,0,0-2-1.94c-1.45-.62-3.1-.26-4.93,1.09-.8.58-1.44.77-1.94.55a2.1,2.1,0,0,1-1.16-1.83,5.41,5.41,0,0,1,.44-2.94A9.15,9.15,0,0,1,642,212a17.68,17.68,0,0,1,8.43-1.3,17.11,17.11,0,0,0,5.18-.2,2.67,2.67,0,0,0,1.7-1.4,1.47,1.47,0,0,0,0-1.09,1.31,1.31,0,0,0-.71-.78,3.81,3.81,0,0,0-1.08-.11,1.42,1.42,0,0,1-.4-.11,1.17,1.17,0,0,1-.64-.67,1.21,1.21,0,0,1,0-.95,3.2,3.2,0,0,1,2-1.68,7.75,7.75,0,0,1,3.21-.39,10.75,10.75,0,0,1,3.46.82,9.67,9.67,0,0,1,4.5,3.72,6.46,6.46,0,0,1,1,3.12,7.09,7.09,0,0,1-.56,3.29,8.18,8.18,0,0,1-3.46,3.8,13,13,0,0,1-5.78,1.77c-1.6.15-2.51.49-2.73,1s.08,1,.73,1.91a5.9,5.9,0,0,1,1,2.85,6.23,6.23,0,0,1-.48,3.07,9.41,9.41,0,0,1-4.1,4.28,19.51,19.51,0,0,1-11.22,2.33,33.87,33.87,0,0,1-11.59-2.86,31.39,31.39,0,0,1-12.31-8.77,16.15,16.15,0,0,1-3.67-8.83,12.39,12.39,0,0,1,1-6.23A8.5,8.5,0,0,1,620,204a9.79,9.79,0,0,1,3.52-.94c.8-.06,1.26-.25,1.4-.57a1.61,1.61,0,0,0,0-.8,10.75,10.75,0,0,1,.41-5.42,8.29,8.29,0,0,1,2.79-3.41,10.89,10.89,0,0,1,4.43-1.92,16.78,16.78,0,0,1,5-.13A17.47,17.47,0,0,1,642.47,192.05Z"/><path d="M712.53,231.43a18.86,18.86,0,0,1,5.61,6.19,7.47,7.47,0,0,0,1.6,2.19,8.61,8.61,0,0,0,1.53.75,4.56,4.56,0,0,1,.73.41,3.32,3.32,0,0,1,1.35,2.65,12.57,12.57,0,0,1-2.51,8.4,5.71,5.71,0,0,1-4.9,2.81,5.19,5.19,0,0,1-2.89-1,4.22,4.22,0,0,1-1.6-1.9,6.4,6.4,0,0,1-.17-2.87,24.44,24.44,0,0,0,.23-3.85,8.9,8.9,0,0,0-.52-2.57,10,10,0,0,0-3.67-5,5.78,5.78,0,0,0-5.1-1,8.89,8.89,0,0,0-4.74,3.72,17.1,17.1,0,0,0-3.18,8.89,10.83,10.83,0,0,0,4.82,10.13,14.44,14.44,0,0,0,4.24,2,9.37,9.37,0,0,0,4.08.39,3.13,3.13,0,0,1,2.07.18,2.17,2.17,0,0,1,.88,1.77,3.64,3.64,0,0,1-.72,2.27,8.74,8.74,0,0,1-3,2.49,9.79,9.79,0,0,1-3.87,1.28,6.38,6.38,0,0,1-2.55-.74,12.54,12.54,0,0,0-3-.8,20.44,20.44,0,0,1-8.47-3.44,23.12,23.12,0,0,1-6.62-7.3,20.58,20.58,0,0,1,.7-21.86,19,19,0,0,1,10-7.29,22.2,22.2,0,0,1,11.44-.54A21.64,21.64,0,0,1,712.53,231.43Z"/><path d="M731.45,277.22c-.53-.5-1-.66-1.47-.47a9.33,9.33,0,0,0-2.34,2,27,27,0,0,0-3.59,4.48,1.9,1.9,0,0,0-.3,1,4.68,4.68,0,0,0,.26,1.32,2.82,2.82,0,0,1-.46,3c-.87.93-2.08,1-3.61.32a29.19,29.19,0,0,1-6.48-5q-7.79-7.33-5-10.27a1.74,1.74,0,0,1,1-.59,6.39,6.39,0,0,1,1.85.13,4.24,4.24,0,0,0,2.61-.26,14.27,14.27,0,0,0,3.16-2.44q1.5-1.4,10.19-10.6a23.87,23.87,0,0,0,3.45-4.25,3.23,3.23,0,0,0,.19-2.73,5.38,5.38,0,0,1-.48-2,1.94,1.94,0,0,1,.59-1.25,2.5,2.5,0,0,1,1.88-.79,5,5,0,0,1,2.47.72,14.61,14.61,0,0,1,2.7,2.11q.69.66,3.27,3.48c.32.36.86.9,1.62,1.61q1.89,1.78,5.28,4.51c1.43,1.15,2.41,2,2.94,2.48a16.8,16.8,0,0,1,5.4,9.19,8.71,8.71,0,0,1-2.47,7.92,9.44,9.44,0,0,1-4.24,2.65,8.23,8.23,0,0,1-4.79,0c-.66-.2-1.14-.15-1.43.16s-.35,1.06.1,2a8.45,8.45,0,0,1,1,5.47,17.25,17.25,0,0,1-3.21,6.35,3.16,3.16,0,0,0-.23,4.67,1.74,1.74,0,0,1,.17,1.17,2.33,2.33,0,0,1-.59,1.17,3,3,0,0,1-1.74.84,4.85,4.85,0,0,1-2.29-.19,16.07,16.07,0,0,1-5.61-3.74q-4.1-3.87-3.82-7.7a11.7,11.7,0,0,1,.94-3.71,59.19,59.19,0,0,1,3-5.83,8.92,8.92,0,0,0,1.42-4A4,4,0,0,0,731.45,277.22Zm8.89-11.87L735.49,270l-.18.19a2.26,2.26,0,0,0-.73,1.22,1.61,1.61,0,0,0,.66,1.09,4.65,4.65,0,0,0,3.59,1.58,6.29,6.29,0,0,0,3.73-2.26q3.83-4.07.94-6.78a2.05,2.05,0,0,0-1.51-.71A3,3,0,0,0,740.34,265.35Z"/><path d="M774.19,288.28l9.27,11.6c1.88,2.35,3.29,4,4.25,5a20.78,20.78,0,0,0,3.12,2.67,4.25,4.25,0,0,1,.73.64,3.28,3.28,0,0,1,.39,3.08,10.49,10.49,0,0,1-3.77,5.46,4.9,4.9,0,0,1-2.81,1.23,2.52,2.52,0,0,1-2.21-1,2.45,2.45,0,0,1-.63-1.4,7.22,7.22,0,0,1,.48-2.21,6.22,6.22,0,0,0,0-4.13,22.6,22.6,0,0,0-3.49-5.41q-2.07-2.6-3.45-2.42a3.9,3.9,0,0,0-1.61.71q-.88.62-4.32,3.36c-.9.72-1.34,1.32-1.32,1.79a6.6,6.6,0,0,0,1.57,2.63,2.46,2.46,0,0,0,1.5,1.06,2.78,2.78,0,0,0,1.84-.58,13.27,13.27,0,0,1,2.06-1.11,2.42,2.42,0,0,1,1.34-.05,2.13,2.13,0,0,1,1.29.78,2.46,2.46,0,0,1,.38,2.28,7.88,7.88,0,0,1-1.67,2.65,23.08,23.08,0,0,1-3.21,3.1,17.06,17.06,0,0,1-6.73,3.56,2.52,2.52,0,0,1-2.72-.85,1.59,1.59,0,0,1-.45-1.38,5,5,0,0,1,1.28-1.76,3.42,3.42,0,0,0,.16-5,1.85,1.85,0,0,0-1.75-.87,6.65,6.65,0,0,0-2.68,1.53c-.7.56-1.58,1.34-2.62,2.34a16.31,16.31,0,0,0-2,2.08,1.79,1.79,0,0,0-.05,1.86,17.08,17.08,0,0,0,2.24,3.34,15,15,0,0,0,5,4.4,8.24,8.24,0,0,0,5.38.29,7.44,7.44,0,0,1,2.67-.27,2.44,2.44,0,0,1,1.51,1,2.4,2.4,0,0,1,.43,2.23,4.27,4.27,0,0,1-1.57,2.27,13.77,13.77,0,0,1-3.94,2,21,21,0,0,1-5,1.17,6,6,0,0,1-1.71,0,1.78,1.78,0,0,1-.94-.65,10.55,10.55,0,0,1-.86-1.35,32.75,32.75,0,0,0-2.75-4.13l-15.29-19.15a3.56,3.56,0,0,1-.92-2.19,2.19,2.19,0,0,1,.93-1.77,1.79,1.79,0,0,1,1.16-.49,5.54,5.54,0,0,1,1.74.65,3.22,3.22,0,0,0,1.53.42,4.05,4.05,0,0,0,1.67-.5,57.79,57.79,0,0,0,9.78-6.59q8.72-7,10.13-9.87a2,2,0,0,0,.23-1,5.83,5.83,0,0,0-.47-1.47,2.1,2.1,0,0,1,.69-2.66,2.58,2.58,0,0,1,1.63-.6,2.52,2.52,0,0,1,1.64.53A23.15,23.15,0,0,1,774.19,288.28Z"/><path d="M771.43,350.68l-1-1.79c-.62-1.05-1.35-2.19-2.21-3.43-.55-.77-.91-1.32-1.1-1.63a5.24,5.24,0,0,1-.82-3.17,2.79,2.79,0,0,1,1.41-2.24,2.17,2.17,0,0,1,1.62-.33,3.86,3.86,0,0,1,1.67,1.05,2.5,2.5,0,0,0,1.6.87,7.1,7.1,0,0,0,2.51-.73c1.32-.6,3.82-1.91,7.49-3.91s7.28-4.06,10.83-6.14a9,9,0,0,0,2.6-2,2.84,2.84,0,0,0,.23-2.18,2.65,2.65,0,0,1,1.21-3,2.44,2.44,0,0,1,2.6.06,7.71,7.71,0,0,1,2.63,2.9l.94,1.66c.77,1.43,1.33,2.46,1.71,3.09q2.09,3.56,4.94,7.92c.41.61.88,1.39,1.44,2.33a29.76,29.76,0,0,1,4,9.79,16.24,16.24,0,0,1-2.18,11.25,22.83,22.83,0,0,1-8.31,7.87,23.62,23.62,0,0,1-6.13,2.49,20.45,20.45,0,0,1-6.2.65,17.68,17.68,0,0,1-10.56-4.53,23.11,23.11,0,0,1-4.74-5.79l-1.67-3.07-1.45-2.64Q772.78,353,771.43,350.68Zm30.09-10.61-19.29,11.31a3.56,3.56,0,0,0-1.84,2,3.61,3.61,0,0,0,.66,2.63q4.26,7.28,15.33.78,6.11-3.58,8.48-7.25a7.59,7.59,0,0,0,0-8.51,2.77,2.77,0,0,0-1.46-1.4A2.49,2.49,0,0,0,801.52,340.07Z"/><path d="M830.53,377.44a33.1,33.1,0,0,1,2,5.93q.85,3.92-1.48,4.93a1.76,1.76,0,0,1-1.3.14,8.05,8.05,0,0,1-1.92-1.32,3.79,3.79,0,0,0-3.37-.44,59.41,59.41,0,0,0-8.22,3.13q-10.12,4.41-12.31,6a2.7,2.7,0,0,0-.93,1.08,5,5,0,0,0-.31,1.72,2.73,2.73,0,0,1-1.54,2.76c-1.41.61-2.85,0-4.32-2a40.18,40.18,0,0,1-4.58-8.18q-3.76-8.64-.48-10.07c.79-.34,1.78-.1,3,.73a3.41,3.41,0,0,0,2.85.59,110.65,110.65,0,0,0,13-5.09q6.78-3,8.38-4.47a4.31,4.31,0,0,0,1.19-2.63,6.92,6.92,0,0,1,.56-2,2.05,2.05,0,0,1,1-.9,2.24,2.24,0,0,1,2.3.31,13.49,13.49,0,0,1,2.89,3.35A37.29,37.29,0,0,1,830.53,377.44Z"/><path d="M840.57,405.26l4.5,14.55a18.86,18.86,0,0,0,2,4.08,5.93,5.93,0,0,1,.68,1.4q.69,2.23-2,5.37a13.11,13.11,0,0,1-6.16,4.22,4.28,4.28,0,0,1-4-.38,4.47,4.47,0,0,1-1.65-2.39,4.29,4.29,0,0,1,0-2.79,9.05,9.05,0,0,1,2-3,11.08,11.08,0,0,0,1.79-2.13,1.78,1.78,0,0,0,.13-1.43,1.59,1.59,0,0,0-1.31-1.2,7.06,7.06,0,0,0-2.95.43l-15.45,4.79a9,9,0,0,0-3.3,1.57,3.55,3.55,0,0,0-1.08,2.39,6.53,6.53,0,0,1-.57,2.4,2.29,2.29,0,0,1-1.39,1q-2,.62-3.79-1.78a27.33,27.33,0,0,1-3.52-8q-2.13-6.84-2-10.5c0-2.06.78-3.3,2.18-3.73a2.06,2.06,0,0,1,2.07.44,20.47,20.47,0,0,1,1.27,1.76,2.24,2.24,0,0,0,1.61,1.09,12.18,12.18,0,0,0,3.48-.37q2.22-.45,7.1-1.74t8.41-2.4a11.67,11.67,0,0,0,3.41-1.48,1.4,1.4,0,0,0,.66-1.59c-.22-.72-1-1.26-2.2-1.62a16.9,16.9,0,0,1-4.66-1.88A4.82,4.82,0,0,1,824,400a3.25,3.25,0,0,1,.36-2.8,4.42,4.42,0,0,1,2.56-1.86,11.36,11.36,0,0,1,4-.39,15.86,15.86,0,0,1,4.44.9q3.46,1.22,4.1,3.26a6.42,6.42,0,0,1,.23,1.32c.1,1.06.22,1.92.34,2.58A18.7,18.7,0,0,0,840.57,405.26Z"/><path d="M856.63,474.33a28.44,28.44,0,0,1-.58,7.92,3.35,3.35,0,0,0-.07.94,8.84,8.84,0,0,0,.71,1.66,2.76,2.76,0,0,1,.29,1q.21,1.92-2.58,4.41a10.33,10.33,0,0,1-5.56,2.8,4.06,4.06,0,0,1-2.82-.65,3,3,0,0,1-1.37-2.22,3.4,3.4,0,0,1,.24-1.91,32.16,32.16,0,0,1,2.37-3.47c1.88-2.55,2.7-4.93,2.44-7.15a4,4,0,0,0-1.07-2.48,2.53,2.53,0,0,0-2.15-.73c-1.66.19-2.75,1.8-3.25,4.83a65.24,65.24,0,0,1-1.69,7.89q-2.73,7.74-9.64,8.52a12.16,12.16,0,0,1-10.56-3.85q-4.55-4.67-5.49-12.9a37.39,37.39,0,0,1,0-7.85,18.48,18.48,0,0,1,1.38-6.12q.76-1.49,3.72-2.94a17.94,17.94,0,0,1,5.89-1.79,3.34,3.34,0,0,1,2.19.33,2.24,2.24,0,0,1,1.13,1.7,2.87,2.87,0,0,1-.89,2.23,40.46,40.46,0,0,1-3.72,3.3,7.85,7.85,0,0,0-2.28,3.68,11.24,11.24,0,0,0-.52,4.9,6.75,6.75,0,0,0,1.18,3.36,2.33,2.33,0,0,0,2.18,1.08,2.46,2.46,0,0,0,1.86-1.25,10.51,10.51,0,0,0,1.17-3.54,45.87,45.87,0,0,1,1.65-6.53,19.23,19.23,0,0,1,2.26-4.33q3.5-5,8.61-5.58a11.07,11.07,0,0,1,5.06.62,12.37,12.37,0,0,1,4.52,2.85A17.82,17.82,0,0,1,856.63,474.33Z"/><path d="M858.83,522.86a20.68,20.68,0,0,1-4.55,12.87,21.83,21.83,0,0,1-7.7,5.92,20.77,20.77,0,0,1-9.3,2.07,18.43,18.43,0,0,1-12.09-4.79,21.11,21.11,0,0,1-6.32-10.11,24.52,24.52,0,0,1-1-7.63,22.64,22.64,0,0,1,2.3-9.51,19.28,19.28,0,0,1,7.79-8.46,20.22,20.22,0,0,1,10.91-2.79,19.87,19.87,0,0,1,12,4.18,20.08,20.08,0,0,1,6.66,9.49A24.35,24.35,0,0,1,858.83,522.86Zm-8.23-2.94a4.37,4.37,0,0,0-2.08-3.89,6.68,6.68,0,0,0-3.81-1.19,26,26,0,0,0-7.59,1.16,33.82,33.82,0,0,0-7.69,3.18,7.2,7.2,0,0,0-2.3,2.15,4.93,4.93,0,0,0-.9,2.66,4.34,4.34,0,0,0,1.57,3.57,6.68,6.68,0,0,0,4.3,1.45,28.28,28.28,0,0,0,7.56-1,26.12,26.12,0,0,0,7-2.76,9.35,9.35,0,0,0,2.84-2.47A5.5,5.5,0,0,0,850.6,519.92Z"/><path d="M853.76,574.34a18.92,18.92,0,0,1-3.18,7.72,7.57,7.57,0,0,0-1.29,2.39,9.76,9.76,0,0,0,0,1.7,3.5,3.5,0,0,1,0,.84,3.31,3.31,0,0,1-1.81,2.36,12.64,12.64,0,0,1-8.67,1.35,5.72,5.72,0,0,1-4.64-3.22,5.1,5.1,0,0,1-.37-3,4.21,4.21,0,0,1,1-2.26,6.25,6.25,0,0,1,2.52-1.39,24.08,24.08,0,0,0,3.57-1.45,9,9,0,0,0,2.1-1.58,10.06,10.06,0,0,0,2.91-5.45,5.74,5.74,0,0,0-1.33-5,8.86,8.86,0,0,0-5.39-2.68,17.07,17.07,0,0,0-9.4,1,10.85,10.85,0,0,0-7.07,8.71,14.26,14.26,0,0,0,0,4.7,9.22,9.22,0,0,0,1.4,3.85,3.12,3.12,0,0,1,.73,1.94,2.15,2.15,0,0,1-1.22,1.56,3.6,3.6,0,0,1-2.36.33,8.68,8.68,0,0,1-3.53-1.62,9.86,9.86,0,0,1-2.82-2.94,6.39,6.39,0,0,1-.43-2.62,12.45,12.45,0,0,0-.57-3.06,20.45,20.45,0,0,1-.54-9.12,23.33,23.33,0,0,1,3.74-9.12,20.64,20.64,0,0,1,20-8.78A19,19,0,0,1,848,555.31a22.16,22.16,0,0,1,5.42,10.09A21.78,21.78,0,0,1,853.76,574.34Z"/><path d="M844.92,611.45a31.5,31.5,0,0,1-2.27,5.81q-1.83,3.56-4.28,2.85a1.78,1.78,0,0,1-1.1-.72,8.5,8.5,0,0,1-.63-2.24,3.8,3.8,0,0,0-2.32-2.49,60,60,0,0,0-8.33-2.83q-10.61-3-13.28-3.25a2.93,2.93,0,0,0-1.41.24A5.45,5.45,0,0,0,810,610a2.71,2.71,0,0,1-2.94,1.13q-2.22-.63-2.08-4.26a40.63,40.63,0,0,1,1.69-9.23q2.61-9,6-8.06c.83.24,1.44,1.06,1.82,2.45a3.4,3.4,0,0,0,1.82,2.27,109.66,109.66,0,0,0,13.28,4.39c4.74,1.36,7.85,2,9.32,1.9a4.31,4.31,0,0,0,2.59-1.27,6.77,6.77,0,0,1,1.69-1.17,2.12,2.12,0,0,1,1.39,0,2.24,2.24,0,0,1,1.57,1.7,13.69,13.69,0,0,1,.09,4.43A36.38,36.38,0,0,1,844.92,611.45Z"/><path d="M837.35,633.37l-5.65,13.74c-1.14,2.78-1.92,4.83-2.32,6.15a20.66,20.66,0,0,0-.83,4,3.43,3.43,0,0,1-.2,1,3.28,3.28,0,0,1-2.51,1.84,10.55,10.55,0,0,1-6.6-.65,5,5,0,0,1-2.44-1.86,2.56,2.56,0,0,1-.17-2.43,2.45,2.45,0,0,1,.93-1.23,7.28,7.28,0,0,1,2.16-.66,6.15,6.15,0,0,0,3.61-2,22.21,22.21,0,0,0,3-5.68c.84-2.05,1-3.44.44-4.19a3.88,3.88,0,0,0-1.41-1.06q-1-.48-5-2.14c-1.07-.44-1.81-.54-2.21-.29a6.37,6.37,0,0,0-1.54,2.65,2.56,2.56,0,0,0-.21,1.82,2.9,2.9,0,0,0,1.41,1.33,13.25,13.25,0,0,1,2,1.26,2.44,2.44,0,0,1,.7,1.15,2.16,2.16,0,0,1-.06,1.5,2.48,2.48,0,0,1-1.81,1.45,8.06,8.06,0,0,1-3.13-.18,22.35,22.35,0,0,1-4.26-1.3,17.22,17.22,0,0,1-6.39-4.15,2.54,2.54,0,0,1-.57-2.8,1.57,1.57,0,0,1,1-1.06,4.85,4.85,0,0,1,2.16.26q3.18.84,4.47-2.29a1.87,1.87,0,0,0-.09-2,6.75,6.75,0,0,0-2.64-1.59c-.84-.35-1.94-.74-3.32-1.17a17.84,17.84,0,0,0-2.78-.72,1.81,1.81,0,0,0-1.65.87,16.59,16.59,0,0,0-1.83,3.58,14.87,14.87,0,0,0-1.45,6.46,8.27,8.27,0,0,0,2.36,4.84,7.56,7.56,0,0,1,1.53,2.21,2.42,2.42,0,0,1-.11,1.78,2.39,2.39,0,0,1-1.73,1.46,4.31,4.31,0,0,1-2.75-.27,13.73,13.73,0,0,1-3.67-2.48,21.42,21.42,0,0,1-3.44-3.78,6.09,6.09,0,0,1-.8-1.52,1.77,1.77,0,0,1,.11-1.14,10.56,10.56,0,0,1,.76-1.41,31.37,31.37,0,0,0,2.28-4.4L802,615.63a3.52,3.52,0,0,1,1.47-1.87,2.22,2.22,0,0,1,2,0,1.72,1.72,0,0,1,1,.78,5.48,5.48,0,0,1,.28,1.84,3.07,3.07,0,0,0,.37,1.54,4.14,4.14,0,0,0,1.25,1.21,57.37,57.37,0,0,0,10.51,5.36q10.32,4.23,13.54,4.06a2,2,0,0,0,1-.28,5.42,5.42,0,0,0,1.06-1.13,2.09,2.09,0,0,1,2.66-.68,2.67,2.67,0,0,1,1.65,2.83A23.8,23.8,0,0,1,837.35,633.37Z"/><path d="M815.26,681.35l-7.64,13.17a18.51,18.51,0,0,0-1.67,4.21,5.69,5.69,0,0,1-.57,1.44q-1.17,2-5.28,2.19a13.11,13.11,0,0,1-7.28-1.66,4.32,4.32,0,0,1-2.41-3.17,4.51,4.51,0,0,1,.64-2.83,4.29,4.29,0,0,1,2.07-1.87,9,9,0,0,1,3.56-.52,11.35,11.35,0,0,0,2.78-.12,1.84,1.84,0,0,0,1.14-.88,1.58,1.58,0,0,0,0-1.77,6.78,6.78,0,0,0-2.32-1.88l-14-8.11a9.14,9.14,0,0,0-3.38-1.37,3.6,3.6,0,0,0-2.49.83,6.65,6.65,0,0,1-2.15,1.21,2.24,2.24,0,0,1-1.69-.33q-1.8-1-1.27-4a27.49,27.49,0,0,1,3.47-8c2.4-4.14,4.52-7,6.36-8.61,1.54-1.35,3-1.66,4.21-.93a2.07,2.07,0,0,1,1.08,1.83,18.87,18.87,0,0,1-.43,2.12,2.26,2.26,0,0,0,.29,1.92,12.4,12.4,0,0,0,2.63,2.31q1.85,1.34,6.1,4t7.46,4.56a11.66,11.66,0,0,0,3.4,1.5,1.4,1.4,0,0,0,1.62-.59,2.93,2.93,0,0,0-.3-2.72,16.9,16.9,0,0,1-1.78-4.7,4.75,4.75,0,0,1,.46-3,3.25,3.25,0,0,1,2.3-1.64,4.48,4.48,0,0,1,3.1.62,11.46,11.46,0,0,1,3,2.68,16,16,0,0,1,2.35,3.87c1,2.25,1.09,4,.38,5.23a5.85,5.85,0,0,1-.82,1.06c-.7.79-1.26,1.46-1.66,2A20.41,20.41,0,0,0,815.26,681.35Z"/><path d="M790.34,721.29a47,47,0,0,1-5.84,6.4,4.31,4.31,0,0,1-2.16,1.07,2.29,2.29,0,0,1-1.88-.44,2.37,2.37,0,0,1-.81-1.45,3.68,3.68,0,0,0-.76-1.78c-.55-.43-1.75-.69-3.63-.77a2.83,2.83,0,0,0-2.41.67,2,2,0,0,0-.39,1.21,10.75,10.75,0,0,0,.33,2.17,4.07,4.07,0,0,0,1.07,2.28,1.77,1.77,0,0,0,.69.39,10.06,10.06,0,0,0,1.56,0,2.61,2.61,0,0,1,1.76.66q2.57,2-2.93,9a28.5,28.5,0,0,1-4.4,4.81,3.07,3.07,0,0,1-1.84.55,2.79,2.79,0,0,1-1.74-.59,2.22,2.22,0,0,1-1-1.68,5.45,5.45,0,0,1,.84-2.54,6.71,6.71,0,0,0,.79-3,49.91,49.91,0,0,0-.69-6.22,31.68,31.68,0,0,0-1.87-7.72,14.26,14.26,0,0,0-4.1-4.48q-2.62-2.09-5-3.66a6.22,6.22,0,0,0-2.25-1.08,4.15,4.15,0,0,0-2.1.48c-1.44.65-2.6.63-3.46,0q-3.07-2.44,4.13-11.55a42.85,42.85,0,0,1,6.32-6.49c1.9-1.55,3.44-1.85,4.65-.89.94.74,1.16,1.85.66,3.32a3.28,3.28,0,0,0-.12,2.52q1,2,6.81,6.57a11,11,0,0,0,3.1,1.87,13.72,13.72,0,0,0,3.88.49,74.17,74.17,0,0,0,10.18-.52,8.71,8.71,0,0,0,3.36-1,10.39,10.39,0,0,1,2.31-1.2,2.34,2.34,0,0,1,2,.52q1.51,1.2.37,4A38.69,38.69,0,0,1,790.34,721.29Z"/><path d="M122.36,379.51a32.31,32.31,0,0,1,4.49-7.91,3.59,3.59,0,0,0,.53-.94,9.22,9.22,0,0,0,.08-2.07,3.18,3.18,0,0,1,.18-1.13q.72-2.1,4.84-3.3a11.79,11.79,0,0,1,7.13-.16,4.63,4.63,0,0,1,2.6,2.06,3.48,3.48,0,0,1,.33,3,4,4,0,0,1-1.2,1.86,36.78,36.78,0,0,1-4.16,2.43q-4.78,2.55-6,6.19a4.6,4.6,0,0,0-.11,3.09,2.87,2.87,0,0,0,1.86,1.81c1.82.62,3.74-.5,5.75-3.39a73.87,73.87,0,0,1,5.63-7.34q6.61-6.66,14.17-4.07a13.93,13.93,0,0,1,9,9.18q2.42,7.05-.66,16A42.29,42.29,0,0,1,163,403a21.35,21.35,0,0,1-4.43,5.66c-1,.77-2.78,1.18-5.3,1.21a20.4,20.4,0,0,1-7-1,3.85,3.85,0,0,1-2.1-1.42,2.55,2.55,0,0,1-.33-2.32,3.27,3.27,0,0,1,2-1.86,46.39,46.39,0,0,1,5.48-1.59,9,9,0,0,0,4.17-2.69,13.08,13.08,0,0,0,2.95-4.81,7.73,7.73,0,0,0,.42-4.06,2.67,2.67,0,0,0-1.71-2.19,2.86,2.86,0,0,0-2.55.38,12.25,12.25,0,0,0-3,3.09,51.94,51.94,0,0,1-4.92,5.94,21.87,21.87,0,0,1-4.46,3.37q-6.08,3.45-11.66,1.54a12.83,12.83,0,0,1-4.93-3.12,14.22,14.22,0,0,1-3.28-5.19A20.41,20.41,0,0,1,122.36,379.51Z"/><path d="M171.91,324.11l14.79.42a9.58,9.58,0,0,0,2.84-.24,3.31,3.31,0,0,0,1.51-1.28q1.39-2,3.23-1,2.16,1.08,1.8,4.16t-3.33,9a70.26,70.26,0,0,1-5.53,9.63,5.13,5.13,0,0,1-2.26,1.81,2.93,2.93,0,0,1-2.41-.11,2.16,2.16,0,0,1-1.14-1.15,4.62,4.62,0,0,1,0-2.16,1.89,1.89,0,0,0-.9-2.19c-1.33-.66-2.51-.26-3.54,1.22a63.85,63.85,0,0,0-4,7.08q-2,3.93-1.88,4.94a2.63,2.63,0,0,0,.65,1.36,3.81,3.81,0,0,0,1.3,1.1,1.17,1.17,0,0,0,1,.17,8.53,8.53,0,0,0,1.46-1.32,2.39,2.39,0,0,1,3-.74q3.53,1.77-.71,10.2a30.91,30.91,0,0,1-4.18,6.72,2.92,2.92,0,0,1-3.76.7,2.23,2.23,0,0,1-1.19-1.17,4.53,4.53,0,0,1-.1-2.1,7.17,7.17,0,0,0-.44-3.87,32.68,32.68,0,0,0-3.84-5.46l-7-8.76a78.07,78.07,0,0,0-6-6.88,19.42,19.42,0,0,0-4.49-3.27,17.72,17.72,0,0,1-3.38-2.08,5.08,5.08,0,0,1-1.31-2.23,7.87,7.87,0,0,1,.55-6.25,9.73,9.73,0,0,1,5.2-4.54Q152.87,323.61,171.91,324.11Zm-6.61,22.47,2.91-5.8q.81-1.61.09-1.95-1-.49-5.9-.19a17.26,17.26,0,0,0-3.11.37,1.69,1.69,0,0,0-1.16.82c-.36.71,0,1.64,1.09,2.77l1.67,1.92a18.82,18.82,0,0,0,3,3.05C164.37,347.82,164.85,347.49,165.3,346.58Z"/><path d="M195.56,294a1.57,1.57,0,0,0-.31,1.75A10.88,10.88,0,0,0,198,298a31.5,31.5,0,0,0,5.66,3.34,2.32,2.32,0,0,0,1.13.19,5.48,5.48,0,0,0,1.45-.52,3.25,3.25,0,0,1,3.5,0c1.19.83,1.51,2.18.94,4s-2.11,4.58-4.64,8.17q-7.05,10-10.84,7.35a2.09,2.09,0,0,1-.83-1,7.83,7.83,0,0,1-.15-2.13,4.82,4.82,0,0,0-.72-2.91,16.25,16.25,0,0,0-3.28-3.19q-1.83-1.49-13.69-9.84a27.37,27.37,0,0,0-5.38-3.22,3.74,3.74,0,0,0-3.12.23,6.26,6.26,0,0,1-2.16.87,2.25,2.25,0,0,1-1.52-.46,2.9,2.9,0,0,1-1.21-2,5.84,5.84,0,0,1,.42-2.92,16.49,16.49,0,0,1,2-3.4q.63-.9,3.42-4.28.52-.64,1.56-2.1,1.71-2.44,4.25-6.73,1.62-2.7,2.35-3.73a19.22,19.22,0,0,1,9.53-7.62,10,10,0,0,1,9.39,1.51,10.79,10.79,0,0,1,3.69,4.38,9.31,9.31,0,0,1,.77,5.44q-.18,1.17.42,1.59c.52.37,1.26.22,2.2-.43a9.75,9.75,0,0,1,6.05-2,19.79,19.79,0,0,1,7.73,2.61,6,6,0,0,0,2.81.92,5.87,5.87,0,0,0,2.52-1.42,1.93,1.93,0,0,1,1.3-.38,2.54,2.54,0,0,1,1.42.47,3.48,3.48,0,0,1,1.24,1.85,5.61,5.61,0,0,1,.16,2.62,18.64,18.64,0,0,1-3.33,7q-3.72,5.28-8.11,5.59a13.57,13.57,0,0,1-4.37-.47,66.76,66.76,0,0,1-7.09-2.46,10.31,10.31,0,0,0-4.74-1A4.56,4.56,0,0,0,195.56,294Zm-14.92-8.16,6.1,4.74.24.17a2.61,2.61,0,0,0,1.5.64q.53-.06,1.14-.93a5.36,5.36,0,0,0,1.21-4.33c-.32-1.3-1.37-2.58-3.18-3.86q-5.22-3.67-7.84,0a2.39,2.39,0,0,0-.56,1.84A3.52,3.52,0,0,0,180.64,285.81Z"/><path d="M242,232.78l14,4.71a9.61,9.61,0,0,0,2.79.6,3.29,3.29,0,0,0,1.82-.78c1.27-1,2.41-1,3.4-.06q1.74,1.67.5,4.51t-5.81,7.63a70.12,70.12,0,0,1-8.1,7.6,5.08,5.08,0,0,1-2.69,1.07,2.89,2.89,0,0,1-2.27-.81,2.17,2.17,0,0,1-.76-1.43,4.79,4.79,0,0,1,.58-2.08,1.89,1.89,0,0,0-.22-2.36q-1.6-1.53-3.74.14a64.23,64.23,0,0,0-5.89,5.6q-3,3.19-3.24,4.18a2.63,2.63,0,0,0,.22,1.49,3.78,3.78,0,0,0,.93,1.43q.53.51.87.45a9.09,9.09,0,0,0,1.79-.84,2.4,2.4,0,0,1,3.12.18q2.85,2.72-3.66,9.55a30.88,30.88,0,0,1-6,5.2,2.94,2.94,0,0,1-3.81-.42,2.25,2.25,0,0,1-.79-1.47,4.59,4.59,0,0,1,.52-2,7,7,0,0,0,.7-3.83,31.85,31.85,0,0,0-2.07-6.34l-4.19-10.44a82.56,82.56,0,0,0-3.71-8.32,19.14,19.14,0,0,0-3.34-4.43,17.74,17.74,0,0,1-2.63-3,5,5,0,0,1-.6-2.52,7.82,7.82,0,0,1,2.34-5.82,9.74,9.74,0,0,1,6.3-2.82Q223.94,226.73,242,232.78Zm-12.88,19.56,4.48-4.7c.82-.86,1-1.48.66-1.84q-.8-.77-5.6-1.9a16.51,16.51,0,0,0-3.08-.56,1.71,1.71,0,0,0-1.35.45c-.54.58-.47,1.57.24,3,.08.2.43,1,1,2.32a18.36,18.36,0,0,0,2,3.79C227.88,253.25,228.42,253.07,229.12,252.34Z"/><path d="M257.14,189.1a21.71,21.71,0,0,1,8.62-4.17,8.57,8.57,0,0,0,2.92-1.07,9.07,9.07,0,0,0,1.31-1.43,4.91,4.91,0,0,1,.69-.67,3.8,3.8,0,0,1,3.35-.64,14.39,14.39,0,0,1,8.43,5.46c1.67,2.09,2.18,4.18,1.52,6.29a5.93,5.93,0,0,1-2,2.87,4.7,4.7,0,0,1-2.6,1.14,7.1,7.1,0,0,1-3.21-.73,29,29,0,0,0-4.16-1.49,10.5,10.5,0,0,0-3-.25,11.48,11.48,0,0,0-6.65,2.44,6.57,6.57,0,0,0-2.69,5.3,10.09,10.09,0,0,0,2.56,6.41,19.68,19.68,0,0,0,8.76,6.35,12.4,12.4,0,0,0,12.69-2,16.46,16.46,0,0,0,3.59-4,10.73,10.73,0,0,0,1.75-4.37,3.45,3.45,0,0,1,.86-2.21,2.46,2.46,0,0,1,2.22-.4,4.15,4.15,0,0,1,2.27,1.51,10.06,10.06,0,0,1,1.78,4.09,11.12,11.12,0,0,1,.17,4.66,7.3,7.3,0,0,1-1.63,2.57,14.39,14.39,0,0,0-1.85,3.05,23.24,23.24,0,0,1-6.5,8.2,26.72,26.72,0,0,1-10.16,5,23.58,23.58,0,0,1-23.82-7.8,21.71,21.71,0,0,1-4.8-13.32A25.45,25.45,0,0,1,250.63,197,24.84,24.84,0,0,1,257.14,189.1Z"/><path d="M287.36,168.12l14.57-8.8c2.95-1.78,5.06-3.13,6.34-4.07a24.36,24.36,0,0,0,3.5-3.14,4.84,4.84,0,0,1,.83-.74,3.78,3.78,0,0,1,3.57,0,12.07,12.07,0,0,1,5.63,5.1,5.61,5.61,0,0,1,1,3.38,2.91,2.91,0,0,1-1.5,2.35,2.78,2.78,0,0,1-1.69.5,8.36,8.36,0,0,1-2.44-.86,7,7,0,0,0-4.69-.63,25.29,25.29,0,0,0-6.66,3.15q-3.27,2-3.27,3.56a4.25,4.25,0,0,0,.57,1.93c.37.73,1.43,2.53,3.16,5.4.69,1.14,1.3,1.73,1.84,1.77s1.62-.41,3.23-1.38a2.94,2.94,0,0,0,1.43-1.54,3.24,3.24,0,0,0-.39-2.18,14.18,14.18,0,0,1-.95-2.51,2.72,2.72,0,0,1,.14-1.53,2.41,2.41,0,0,1,1.08-1.35,2.8,2.8,0,0,1,2.65-.09,9.06,9.06,0,0,1,2.76,2.3,26.74,26.74,0,0,1,3,4.1,19.76,19.76,0,0,1,3,8.18,2.88,2.88,0,0,1-1.38,3,1.84,1.84,0,0,1-1.64.31,5.7,5.7,0,0,1-1.8-1.71c-1.58-2-3.47-2.28-5.68-.95a2.14,2.14,0,0,0-1.25,1.86,7.74,7.74,0,0,0,1.33,3.28c.54.88,1.29,2,2.27,3.33a21.39,21.39,0,0,0,2.06,2.56,2.08,2.08,0,0,0,2.12.33,19.74,19.74,0,0,0,4.12-2q4.25-2.58,5.75-5a9.47,9.47,0,0,0,1.12-6.08,8.61,8.61,0,0,1,.1-3.07,2.81,2.81,0,0,1,1.32-1.57,2.78,2.78,0,0,1,2.59-.16,4.93,4.93,0,0,1,2.35,2.13A16.24,16.24,0,0,1,339.2,182a24.65,24.65,0,0,1,.58,5.84,7,7,0,0,1-.3,1.94,2,2,0,0,1-.88,1,11.9,11.9,0,0,1-1.66.77,39.15,39.15,0,0,0-5.11,2.5l-24,14.51a4.08,4.08,0,0,1-2.63.71,2.53,2.53,0,0,1-1.88-1.32,2,2,0,0,1-.38-1.39,6.53,6.53,0,0,1,1-1.88,3.5,3.5,0,0,0,.71-1.67,4.69,4.69,0,0,0-.32-2,66,66,0,0,0-6-12.1q-6.6-10.94-9.69-13a2.24,2.24,0,0,0-1.1-.42,7,7,0,0,0-1.74.32,2.41,2.41,0,0,1-2.92-1.18,3.1,3.1,0,0,1-.44-1.94,2.94,2.94,0,0,1,.86-1.79A26.6,26.6,0,0,1,287.36,168.12Z"/><path d="M344.83,138.65l20.81,6.85c1.95.63,3.24.82,3.87.55q1.59-.68.15-4.05A21.21,21.21,0,0,0,367,137a3.76,3.76,0,0,0-2.81-1.29,4.9,4.9,0,0,1-2.2-.52,3.07,3.07,0,0,1-1.21-1.49q-1.08-2.57,2.11-4.78a30.08,30.08,0,0,1,4.87-2.42,27.4,27.4,0,0,1,6.6-2.16c2.11-.22,3.51.46,4.18,2,.56,1.33.22,2.64-1,4a4.93,4.93,0,0,0-.95,1.23,2.64,2.64,0,0,0-.19,1.16q0,2.37,2.37,8L383,150.6q1,2.28,2.68,6.24a33.59,33.59,0,0,1,2.65,8c.28,2.2-.29,3.61-1.74,4.22a3.46,3.46,0,0,1-1.8.3,18,18,0,0,1-3-.87L356.76,160c-1.75-.61-3-.73-3.87-.38q-1.86.79.33,5.94a25,25,0,0,0,2.93,5.59,4,4,0,0,0,2.9,1.47c1.65.09,2.7.67,3.16,1.75q1.8,4.24-7.32,8.1a16.37,16.37,0,0,1-6.84,1.63q-2.73-.12-3.57-2.1a2.6,2.6,0,0,1-.23-1.73,8.26,8.26,0,0,1,1.32-2.22,4.25,4.25,0,0,0,.46-3.76,102.76,102.76,0,0,0-4.28-11.52q-3.35-7.87-5.78-11.08a5.59,5.59,0,0,0-1.68-1.58,5.44,5.44,0,0,0-2.22-.5,6.44,6.44,0,0,1-2.46-.5,2.57,2.57,0,0,1-1.2-1.33c-.82-2,.33-3.89,3.47-5.82a52.53,52.53,0,0,1,5.87-2.78,12.81,12.81,0,0,1,3.71-1.12A9.09,9.09,0,0,1,344.83,138.65Z"/><path d="M457.4,121.12,459,129q1.41,7.19.93,10.38-1.06,6.77-8.34,11.13a31.28,31.28,0,0,1-10.37,3.86q-10.44,2.06-17.68-1.68a13.06,13.06,0,0,1-5.33-4.82,28.63,28.63,0,0,1-3-9.06q-.46-2.37-1.38-7.83c-.43-2.57-.73-4.26-.9-5.09a11.62,11.62,0,0,0-1.14-3.65,4.44,4.44,0,0,0-2.15-1.6q-2.42-1-2.76-2.7a3,3,0,0,1,.65-2.46,6,6,0,0,1,2.61-1.89,44.27,44.27,0,0,1,8.3-2.38,41,41,0,0,1,9.07-.94q3.63.09,4.17,2.85a2.72,2.72,0,0,1-.58,2.38,16.34,16.34,0,0,1-1.75,1.39,2.58,2.58,0,0,0-1.09,1.94,15.24,15.24,0,0,0,.41,4c.37,1.89,1.08,6,2.14,12.27q.94,5.61,4.7,7.91a9.61,9.61,0,0,0,7.17,1.09,11.41,11.41,0,0,0,4.52-1.89,7.54,7.54,0,0,0,2.7-3.24,7.74,7.74,0,0,0,.64-3.07,21.22,21.22,0,0,0-.51-4.32l-1.41-7.14a86,86,0,0,0-2.36-9.54,3.35,3.35,0,0,0-2.54-1.81,8,8,0,0,1-2.57-.92,2.11,2.11,0,0,1-.92-1.4c-.25-1.3.33-2.4,1.76-3.3a22.87,22.87,0,0,1,7.28-2.36,22.3,22.3,0,0,1,7.47-.56c1.62.29,2.55,1.07,2.81,2.35a2.15,2.15,0,0,1-.12,1.47,9,9,0,0,1-1.77,1.8,3.63,3.63,0,0,0-1.55,2.49A76,76,0,0,0,457.4,121.12Z"/><path d="M493.3,100.91a26.73,26.73,0,0,1,8.22.86,9.64,9.64,0,0,0,2.38.46,11.16,11.16,0,0,0,2.74-.89,4.6,4.6,0,0,1,1.41-.29c1.24-.06,2.45.62,3.64,2a12.36,12.36,0,0,1,3.06,7.56,7,7,0,0,1-1.24,4.66,4.65,4.65,0,0,1-3.71,1.92A6.25,6.25,0,0,1,506,116a27.71,27.71,0,0,1-2.88-3q-3.84-4.31-8.57-4.09a8.32,8.32,0,0,0-6.69,3.45q-2.38,3.26-2.15,8.58a22.29,22.29,0,0,0,4.63,13.28,12,12,0,0,0,3.79,3.06,8.44,8.44,0,0,0,4.25,1,3.76,3.76,0,0,0,2.78-1.27,4,4,0,0,0,1-3,2.58,2.58,0,0,0-1-2.21,1.5,1.5,0,0,0-.69-.28,16.23,16.23,0,0,0-1.91,0,3.25,3.25,0,0,1-2.4-.8,3,3,0,0,1-1.05-2.26c-.08-1.83,1.07-3.18,3.47-4.06a30.53,30.53,0,0,1,9.17-1.67,32.9,32.9,0,0,1,9.44.73q3.66,1,3.79,3.91a2.92,2.92,0,0,1-.73,2.11,3.5,3.5,0,0,1-2.11,1.13,2.87,2.87,0,0,0-1.48.58A4.38,4.38,0,0,0,516,133a17.38,17.38,0,0,1-5.17,9.05,20.63,20.63,0,0,1-6.69,4.07,26.36,26.36,0,0,1-8.39,1.74,27.14,27.14,0,0,1-13.45-2.75,22.91,22.91,0,0,1-9.88-9.1,23.18,23.18,0,0,1-3.21-10.9,21.74,21.74,0,0,1,2.73-11.52,23.22,23.22,0,0,1,9.23-9.36A26.58,26.58,0,0,1,493.3,100.91Z"/><path d="M565.1,127l5,13.94a9.27,9.27,0,0,0,1.25,2.57,3.35,3.35,0,0,0,1.74.95c1.56.39,2.27,1.26,2.14,2.63-.15,1.6-1.23,2.66-3.22,3.18s-5.2.57-9.6.15a71.28,71.28,0,0,1-11-1.67,5.13,5.13,0,0,1-2.51-1.46,2.89,2.89,0,0,1-.76-2.28,2.12,2.12,0,0,1,.66-1.48,4.57,4.57,0,0,1,2-.83c1.06-.25,1.64-.8,1.72-1.63.14-1.47-.67-2.43-2.42-2.86a62.63,62.63,0,0,0-8-1.16q-4.39-.42-5.29,0a2.71,2.71,0,0,0-1,1.1,4,4,0,0,0-.55,1.61,1.17,1.17,0,0,0,.19,1,8.9,8.9,0,0,0,1.76.88,2.41,2.41,0,0,1,1.79,2.57q-.37,3.91-9.77,3a30.7,30.7,0,0,1-7.78-1.47,2.94,2.94,0,0,1-2-3.25A2.28,2.28,0,0,1,520,141a4.43,4.43,0,0,1,1.92-.85,7.11,7.11,0,0,0,3.45-1.82,32.45,32.45,0,0,0,3.71-5.55l5.61-9.74a80.46,80.46,0,0,0,4.25-8.06,19.27,19.27,0,0,0,1.42-5.37,17.12,17.12,0,0,1,.72-3.9,5,5,0,0,1,1.61-2,7.82,7.82,0,0,1,6-1.75,9.7,9.7,0,0,1,6.11,3.2Q558.69,109.09,565.1,127Zm-23.33,2,6.45.62c1.19.11,1.81-.1,1.86-.62.07-.73-.59-2.59-2-5.58a18.4,18.4,0,0,0-1.47-2.77,1.7,1.7,0,0,0-1.19-.77c-.79-.08-1.52.59-2.19,2-.1.18-.5.93-1.18,2.24a18.78,18.78,0,0,0-1.76,3.89C540.27,128.56,540.75,128.89,541.77,129Z"/><path d="M604.47,113.45l12.42,18.06c1.16,1.68,2.08,2.61,2.74,2.78,1.11.28,2-.76,2.57-3.14a21.35,21.35,0,0,0,.93-5.64,3.82,3.82,0,0,0-1.46-2.73,4.83,4.83,0,0,1-1.43-1.74,3,3,0,0,1-.07-1.92c.46-1.79,2-2.64,4.58-2.52a30.21,30.21,0,0,1,5.34,1,27.2,27.2,0,0,1,6.56,2.29q2.72,1.65,2.09,4.15c-.36,1.39-1.43,2.24-3.21,2.53a5.23,5.23,0,0,0-1.5.41,2.63,2.63,0,0,0-.86.8q-1.41,1.9-2.94,7.8l-2.66,10.46c-.41,1.6-1,3.8-1.64,6.58a33.56,33.56,0,0,1-2.75,8q-1.65,2.89-3.93,2.31a3.37,3.37,0,0,1-1.61-.85,17.33,17.33,0,0,1-1.9-2.53L601,137.66q-1.53-2.31-2.85-2.64-2-.5-3.33,4.93a25.4,25.4,0,0,0-1.06,6.22,4,4,0,0,0,1.43,2.92c1.25,1.07,1.74,2.18,1.45,3.31q-1.14,4.46-10.73,2a16.62,16.62,0,0,1-6.43-2.85c-1.4-1.16-1.93-2.44-1.57-3.83a2.55,2.55,0,0,1,.86-1.52,8.79,8.79,0,0,1,2.4-1,4.21,4.21,0,0,0,2.64-2.71,102.52,102.52,0,0,0,3.57-11.76q2.1-8.28,2.11-12.31a5.73,5.73,0,0,0-.38-2.28,5.38,5.38,0,0,0-1.47-1.75,6.11,6.11,0,0,1-1.65-1.89,2.54,2.54,0,0,1-.15-1.77c.52-2.06,2.62-2.9,6.28-2.54a53,53,0,0,1,6.36,1.34,13.24,13.24,0,0,1,3.63,1.35A9.22,9.22,0,0,1,604.47,113.45Z"/><path d="M643.31,170.79l-2.19-.93c-1.28-.55-2.74-1.09-4.38-1.64-1-.35-1.73-.6-2.12-.76a6,6,0,0,1-2.92-2.36,3.2,3.2,0,0,1-.23-3,2.5,2.5,0,0,1,1.27-1.42,4.33,4.33,0,0,1,2.25-.18,2.79,2.79,0,0,0,2.07-.29,8.15,8.15,0,0,0,1.8-2.38q1.21-2.19,4.22-8.71t5.78-13.05a10.49,10.49,0,0,0,1-3.58,3.26,3.26,0,0,0-1.28-2.16,3.06,3.06,0,0,1-1-3.61,2.84,2.84,0,0,1,2.44-1.72,8.93,8.93,0,0,1,4.39.88c.57.24,1.24.54,2,.89,1.68.78,2.91,1.34,3.68,1.67q4.37,1.84,10,3.9c.79.29,1.76.68,2.92,1.17q7,3,10.36,6.27a18.65,18.65,0,0,1,5.69,11.84,26.2,26.2,0,0,1-2.28,12.92A27,27,0,0,1,682.9,171a22.94,22.94,0,0,1-5.26,4.84,20.25,20.25,0,0,1-12.8,3,26.58,26.58,0,0,1-8.32-2.09l-3.64-1.69-3.13-1.44Q646.12,172,643.31,170.79Zm20.43-30.32-10,23.59a4,4,0,0,0-.34,3.08,4.15,4.15,0,0,0,2.4,2q8.9,3.78,14.64-9.75,3.18-7.47,2.85-12.46-.36-5.51-5.81-7.83a3.16,3.16,0,0,0-2.3-.29A2.86,2.86,0,0,0,663.74,140.47Z"/><path d="M726.68,188.22l-1.61,14.71a9.19,9.19,0,0,0,0,2.85,3.31,3.31,0,0,0,1.15,1.61q1.85,1.55.78,3.3c-.83,1.38-2.27,1.87-4.29,1.46s-4.93-1.75-8.7-4a70.29,70.29,0,0,1-9.16-6.3,5,5,0,0,1-1.62-2.4,2.88,2.88,0,0,1,.31-2.38,2.13,2.13,0,0,1,1.24-1.05,4.57,4.57,0,0,1,2.15.12,1.89,1.89,0,0,0,2.26-.72q1.14-1.89-.94-3.63a63.07,63.07,0,0,0-6.72-4.55c-2.51-1.52-4.11-2.28-4.78-2.28a2.72,2.72,0,0,0-1.41.54,3.94,3.94,0,0,0-1.2,1.21,1.2,1.2,0,0,0-.25,1,9.55,9.55,0,0,0,1.2,1.57,2.38,2.38,0,0,1,.49,3.08q-2,3.38-10.11-1.53a31,31,0,0,1-6.36-4.71,2.94,2.94,0,0,1-.4-3.81,2.29,2.29,0,0,1,1.27-1.09,4.5,4.5,0,0,1,2.1.08,7.12,7.12,0,0,0,3.9-.14,32.37,32.37,0,0,0,5.75-3.38l9.3-6.32a79.46,79.46,0,0,0,7.33-5.41,18.72,18.72,0,0,0,3.62-4.21,17.79,17.79,0,0,1,2.35-3.2,5,5,0,0,1,2.33-1.12,7.87,7.87,0,0,1,6.19,1A9.74,9.74,0,0,1,727,164Q728.73,169.29,726.68,188.22Zm-21.86-8.4,5.54,3.37c1,.62,1.67.7,1.94.25q.57-.93.67-5.87a17.76,17.76,0,0,0-.12-3.13,1.68,1.68,0,0,0-.73-1.22c-.68-.41-1.63-.13-2.85.86l-2,1.51a19.53,19.53,0,0,0-3.29,2.73C703.66,178.8,704,179.3,704.82,179.82Z"/><path d="M787.05,206.15a32.47,32.47,0,0,1,5.51,7.24,3.73,3.73,0,0,0,.65.86,10.13,10.13,0,0,0,1.87.89,3.08,3.08,0,0,1,1,.6q1.65,1.48,1.13,5.75a11.8,11.8,0,0,1-2.65,6.62,4.6,4.6,0,0,1-2.92,1.57,3.44,3.44,0,0,1-2.86-.86,3.93,3.93,0,0,1-1.24-1.83,39.3,39.3,0,0,1-.6-4.78q-.46-5.42-3.31-8a4.67,4.67,0,0,0-2.8-1.32,2.86,2.86,0,0,0-2.4,1c-1.29,1.42-1,3.63.85,6.61a73.83,73.83,0,0,1,4.54,8.06q3.53,8.71-1.83,14.63a13.93,13.93,0,0,1-12,4.7q-7.44-.57-14.49-6.93a42.07,42.07,0,0,1-6-6.74,21.06,21.06,0,0,1-3.45-6.3c-.32-1.23,0-3,1-5.35a20.68,20.68,0,0,1,3.7-6,4,4,0,0,1,2.14-1.38,2.57,2.57,0,0,1,2.26.61,3.34,3.34,0,0,1,.93,2.58,51.61,51.61,0,0,1-.7,5.66,9,9,0,0,0,.83,4.9,13.06,13.06,0,0,0,3.27,4.6,7.6,7.6,0,0,0,3.56,2,2.66,2.66,0,0,0,2.69-.71,2.85,2.85,0,0,0,.65-2.49,11.88,11.88,0,0,0-1.68-3.92,52.31,52.31,0,0,1-3.53-6.87,21.81,21.81,0,0,1-1.34-5.43Q759,209.18,763,204.8a12.69,12.69,0,0,1,4.81-3.3,14.19,14.19,0,0,1,6.06-1A20.4,20.4,0,0,1,787.05,206.15Z"/><path d="M817.89,238.26l11.38,13.23a21.21,21.21,0,0,0,3.93,3.39,7,7,0,0,1,1.34,1.16q1.76,2,.39,6.54a15,15,0,0,1-4.55,7.26,4.93,4.93,0,0,1-4.33,1.41,5.15,5.15,0,0,1-2.82-1.76,4.89,4.89,0,0,1-1.25-2.95,10.3,10.3,0,0,1,.78-4,12.14,12.14,0,0,0,.91-3.05,2.07,2.07,0,0,0-.51-1.57,1.83,1.83,0,0,0-1.93-.66,8,8,0,0,0-2.9,1.8l-14.06,12.09a10.38,10.38,0,0,0-2.74,3.16,4,4,0,0,0,0,3,7.69,7.69,0,0,1,.49,2.78,2.6,2.6,0,0,1-1,1.71q-1.82,1.56-4.79-.14t-7.35-6.76q-5.36-6.23-6.92-10.12c-.88-2.18-.69-3.81.58-4.91a2.4,2.4,0,0,1,2.39-.48,22.05,22.05,0,0,1,2.13,1.27,2.63,2.63,0,0,0,2.19.41,14.49,14.49,0,0,0,3.49-2q2.13-1.49,6.67-5.08t7.74-6.35A14,14,0,0,0,810,244.5a1.61,1.61,0,0,0,0-2c-.56-.66-1.58-.89-3-.7a19.42,19.42,0,0,1-5.76.15,5.44,5.44,0,0,1-3.12-1.64,3.72,3.72,0,0,1-.9-3.11,5,5,0,0,1,1.84-3.11,13.15,13.15,0,0,1,4-2.25,18.52,18.52,0,0,1,5.07-1.08q4.2-.3,5.8,1.56a6.45,6.45,0,0,1,.84,1.28c.6,1.06,1.11,1.91,1.54,2.55A24.82,24.82,0,0,0,817.89,238.26Z"/><path d="M846.16,313.8l-7.81,12.57a9.39,9.39,0,0,0-1.22,2.58,3.34,3.34,0,0,0,.34,1.95c.67,1.46.43,2.57-.72,3.31q-2,1.32-4.5-.54t-6.1-7.4a71.62,71.62,0,0,1-5.54-9.63,5.18,5.18,0,0,1-.42-2.87,2.91,2.91,0,0,1,1.31-2,2.16,2.16,0,0,1,1.57-.41,4.67,4.67,0,0,1,1.88,1,1.89,1.89,0,0,0,2.35.33q1.86-1.21.73-3.68a63.49,63.49,0,0,0-4.11-7q-2.4-3.69-3.32-4.12a2.72,2.72,0,0,0-1.5-.12,3.85,3.85,0,0,0-1.6.57c-.41.27-.62.52-.64.75a8.63,8.63,0,0,0,.41,1.93,2.4,2.4,0,0,1-.89,3q-3.32,2.16-8.46-5.74a30.8,30.8,0,0,1-3.7-7,2.93,2.93,0,0,1,1.28-3.61,2.26,2.26,0,0,1,1.62-.43,4.49,4.49,0,0,1,1.86,1,7.09,7.09,0,0,0,3.57,1.57,32.69,32.69,0,0,0,6.65-.57l11.12-1.68a80.68,80.68,0,0,0,8.95-1.71,19,19,0,0,0,5.08-2.23,16.74,16.74,0,0,1,3.51-1.87,5,5,0,0,1,2.58,0,7.84,7.84,0,0,1,5.13,3.61,9.75,9.75,0,0,1,1.3,6.78Q856.2,297.6,846.16,313.8Zm-16.09-17,3.55,5.44c.65,1,1.2,1.35,1.64,1.06q.91-.6,3.14-5a18.41,18.41,0,0,0,1.25-2.87,1.72,1.72,0,0,0-.14-1.42q-.64-1-2.94-.45l-2.49.48a18.23,18.23,0,0,0-4.15,1.05C829.47,295.36,829.52,295.93,830.07,296.78Z"/><path d="M879,343.57c-.64-1.38-1.39-2.07-2.24-2.06a14.46,14.46,0,0,0-3.38.76,33.76,33.76,0,0,0-4.28,1.64,1.78,1.78,0,0,0-1.19,1.43,6.64,6.64,0,0,0,.85,2.9,3.51,3.51,0,0,0,1.4,1.72,2.92,2.92,0,0,0,2,.11q3.6-.85,4.59,1.28,1.72,3.64-7,7.77c-3.69,1.73-6.66,2.48-8.89,2.24a3.26,3.26,0,0,1-2.83-1.89q-.83-1.77,1.41-3.15a11.19,11.19,0,0,0,2-1.39,3.37,3.37,0,0,0,.8-1.41,4.55,4.55,0,0,0-.43-3.32,2.86,2.86,0,0,0-1.34-1.6,2.7,2.7,0,0,0-2,.44l-2.8,1.28c-3.46,1.63-5.39,3-5.82,4.05a2,2,0,0,0-.23,1,15.54,15.54,0,0,0,.54,2.14,2.22,2.22,0,0,1-.18,1.7,2.8,2.8,0,0,1-1.34,1.29c-1.54.72-2.95.29-4.23-1.31a54.87,54.87,0,0,1-6.08-10.49q-2.9-6.18-3.28-8.85a3.71,3.71,0,0,1,.39-2.27A3.47,3.47,0,0,1,837,336a2.89,2.89,0,0,1,2.58,0,12,12,0,0,1,1.53,1.29q1.44,1.37,4,.57,3.94-1.2,17.07-7.37a45.16,45.16,0,0,0,7.15-3.84,3.51,3.51,0,0,0,1.45-3,7.3,7.3,0,0,1,.23-2.5,2.21,2.21,0,0,1,1.21-1.13,2.85,2.85,0,0,1,2.8.25,6,6,0,0,1,2.38,2.76c.38.8.87,2,1.47,3.59q1.91,5.07,5.11,11.86,5.12,10.89,7.49,14.37c.2.32.34.57.43.75a3,3,0,0,1-.26,2.58,13,13,0,0,1-6.19,6.13,5.18,5.18,0,0,1-3.37.52,3,3,0,0,1-2.18-1.75,2.84,2.84,0,0,1-.33-1.79,37.74,37.74,0,0,1,1.64-4.13,7,7,0,0,0,.51-4.21A42.9,42.9,0,0,0,879,343.57Z"/><path d="M897.05,390.33c-.47-1.45-1.13-2.23-2-2.32a14,14,0,0,0-3.44.33,33.13,33.13,0,0,0-4.46,1.09,1.76,1.76,0,0,0-1.35,1.28,6.51,6.51,0,0,0,.48,3,3.58,3.58,0,0,0,1.17,1.89,2.84,2.84,0,0,0,2,.35c2.45-.26,3.91.36,4.4,1.85q1.25,3.84-7.94,6.83c-3.89,1.26-6.92,1.64-9.11,1.12a3.25,3.25,0,0,1-2.57-2.23c-.41-1.24.19-2.22,1.79-2.95a11.32,11.32,0,0,0,2.14-1.13,3.27,3.27,0,0,0,1-1.31,4.45,4.45,0,0,0,0-3.34A2.89,2.89,0,0,0,878,393a2.69,2.69,0,0,0-2.07.18l-2.93.92q-5.46,1.77-6.28,3.3a1.94,1.94,0,0,0-.36,1,15.26,15.26,0,0,0,.28,2.19,2.26,2.26,0,0,1-.4,1.66,2.73,2.73,0,0,1-1.49,1.11q-2.41.8-4-1.82A55.27,55.27,0,0,1,856,390.35q-2.12-6.5-2.16-9.19a3.74,3.74,0,0,1,.68-2.2,3.42,3.42,0,0,1,1.79-1.35,2.91,2.91,0,0,1,2.56.28,12.26,12.26,0,0,1,1.35,1.47c.85,1,2.15,1.38,3.9,1.07q4.07-.71,17.85-5.18a48.09,48.09,0,0,0,7.58-2.92,3.56,3.56,0,0,0,1.81-2.79,7.12,7.12,0,0,1,.54-2.45,2.18,2.18,0,0,1,1.34-1,2.87,2.87,0,0,1,2.75.6,6.09,6.09,0,0,1,2,3c.28.84.61,2.08,1,3.74q1.26,5.26,3.59,12.41,3.72,11.43,5.64,15.19a7.74,7.74,0,0,1,.33.8,2.92,2.92,0,0,1-.57,2.52,13,13,0,0,1-6.91,5.31,5.09,5.09,0,0,1-3.41.1,3,3,0,0,1-2-2,2.81,2.81,0,0,1-.1-1.81,39.59,39.59,0,0,1,2.14-3.9,6.84,6.84,0,0,0,1-4.11A41.66,41.66,0,0,0,897.05,390.33Z"/><path d="M512.07,842.7c-88,0-170.7-34.42-233-96.92a3.08,3.08,0,0,1,4.37-4.35c61.11,61.33,142.3,95.1,228.61,95.1,85.89,0,166.78-33.5,227.77-94.35a3.08,3.08,0,0,1,4.35,4.37C682,808.55,599.6,842.7,512.07,842.7Z"/><path d="M512.4,296.72,589.55,339l8-9.64c2.92-3.47,4.88-5.57,6-6.34a4.52,4.52,0,0,1,3.44-.77,4.24,4.24,0,0,1,3.53,4.88q-.45,2.6-6.36,9.36l-51.81,60.21,31.91,3.58c9.54,1.32,20.28,4.63,32.3,9.95s22,11.93,29.86,19.95a74.11,74.11,0,0,1,17.25,26.42,55.49,55.49,0,0,1,2.59,30.06Q661.1,515.39,632,538.81T535.66,582q-20.26-12-47.37-26-55.47,14.22-88.42,8.27c-15.65-2.76-27.09-8.41-34.28-16.78s-10-17-8.37-26q2.55-14.38,20-23.56c11.66-6.15,27.44-7.36,47.5-3.78a189.05,189.05,0,0,1,28.77,8.19L473,478.83l-27-2.73c-6.34-1-14.66-3.39-25-7.22S402.4,460.42,396.29,455a43.62,43.62,0,0,1-12.54-18.44,40.28,40.28,0,0,1-1.57-20.39q2.9-16.25,16.64-26.7c5.79-4.49,14.66-7.82,26.59-10.08l.25-2.21q3-16.9,22-36.15T512.4,296.72Zm-36,252.73C448,533.88,424.12,524.4,404.83,521q-14.93-2.69-24.83,2.31-6.81,3.27-8,9.65a12.52,12.52,0,0,0,4.08,11.82q8.31,8.26,26.34,11.51Q430.15,561.21,476.36,549.45Zm41.22-124.11a323.23,323.23,0,0,1-46.51-4.87Q446.28,416,437,408.34t-12.21-21c-9.78,4-15.35,10.11-16.83,18.38-1.38,7.52.93,14.32,6.83,20.41q11.78,11.87,44.36,17.78a361.55,361.55,0,0,0,39.46,4.21Zm50.18-60.28c-17.31-12.84-31-21.83-41.09-27s-19.17-8.4-27.28-9.86q-17.1-3.06-29.53,4.65t-14.77,20.64a27.13,27.13,0,0,0,5.43,22.59c5.12,6.59,13.91,10.94,26.25,13.18q12.24,2.19,55.64,6.28ZM461.48,505.39c11,4.55,19.9,8.57,26.76,12s18.93,10.06,36.23,19.79q47.7-12.1,51-30.94,1-5.84-3.25-11.49c-2.81-3.81-6.89-6.15-12.18-7.11a213.87,213.87,0,0,0-24.3-2.65c-27-2-44.59-3.64-53-5.15Zm46.95-56.18q44.23,3.51,61.12,6.53Q592.7,459.91,603,472.6c6.91,8.46,9.42,17.55,7.69,27.28q-2.28,12.72-16.4,22.65T537.64,543.3L573,559.7q26.55-10.46,42.6-25.21a62.46,62.46,0,0,0,19.68-35.38c1.6-9,.55-18.3-3.36-28S621,453.06,610.72,445.87,588,433.8,573.38,431.16c-11.77-2.1-27.11-3.72-45.88-4.77Z"/></g></svg>